<svg xmlns="http://www.w3.org/2000/svg" xmlns:xlink="http://www.w3.org/1999/xlink" width="500" zoomAndPan="magnify" viewBox="0 0 375 374.999991" height="500" preserveAspectRatio="xMidYMid meet" version="1.0"><defs><g><g id="id1"/></g></defs><g fill="rgb(96.078491%, 84.309387%, 51.368713%)" fill-opacity="1"><g transform="translate(8.084919, 202.587562)"><g><path d="M 5.585938 0 L 42.648438 0 L 42.648438 -12.453125 L 20.683594 -12.453125 L 20.683594 -20.605469 L 39.78125 -20.605469 L 39.78125 -32.835938 L 20.683594 -32.835938 L 20.683594 -40.535156 L 41.816406 -40.535156 L 41.816406 -52.835938 L 5.585938 -52.835938 Z M 5.585938 0 "/></g></g></g><g fill="rgb(96.078491%, 84.309387%, 51.368713%)" fill-opacity="1"><g transform="translate(69.677148, 202.587562)"><g><path d="M 5.585938 0 L 42.421875 0 L 42.421875 -14.117188 L 20.832031 -14.117188 L 20.832031 -52.835938 L 5.585938 -52.835938 Z M 5.585938 0 "/></g></g></g><g fill="rgb(96.078491%, 84.309387%, 51.368713%)" fill-opacity="1"><g transform="translate(129.533343, 202.587562)"><g><path d="M 5.585938 0 L 32.683594 0 C 43.402344 0 50.875 -6.039062 50.875 -14.71875 C 50.875 -20.304688 47.855469 -24.832031 42.875 -27.023438 C 46.949219 -29.363281 49.289062 -33.589844 49.289062 -38.648438 C 49.289062 -47.328125 42.347656 -52.835938 31.324219 -52.835938 L 5.585938 -52.835938 Z M 20.53125 -11.324219 L 20.53125 -21.210938 L 29.738281 -21.210938 C 33.363281 -21.210938 35.402344 -19.398438 35.402344 -16.304688 C 35.402344 -13.132812 33.363281 -11.324219 29.738281 -11.324219 Z M 20.53125 -32.082031 L 20.53125 -41.589844 L 28.457031 -41.589844 C 32.003906 -41.589844 33.96875 -39.855469 33.96875 -36.835938 C 33.96875 -33.742188 32.003906 -32.082031 28.457031 -32.082031 Z M 20.53125 -32.082031 "/></g></g></g><g fill="rgb(96.078491%, 84.309387%, 51.368713%)" fill-opacity="1"><g transform="translate(198.14519, 202.587562)"><g><path d="M 5.585938 0 L 20.832031 0 L 20.832031 -15.019531 L 26.570312 -15.019531 L 34.117188 0 L 51.402344 0 L 41.667969 -17.8125 C 47.253906 -20.910156 50.421875 -26.496094 50.421875 -33.890625 C 50.421875 -45.589844 42.496094 -52.835938 29.664062 -52.835938 L 5.585938 -52.835938 Z M 20.53125 -27.171875 L 20.53125 -40.382812 L 27.625 -40.382812 C 32.457031 -40.382812 35.097656 -38.042969 35.097656 -33.816406 C 35.097656 -29.589844 32.457031 -27.171875 27.625 -27.171875 Z M 20.53125 -27.171875 "/></g></g></g><g fill="rgb(96.078491%, 84.309387%, 51.368713%)" fill-opacity="1"><g transform="translate(268.040172, 202.587562)"><g><path d="M 5.585938 0 L 20.832031 0 L 20.832031 -52.835938 L 5.585938 -52.835938 Z M 5.585938 0 "/></g></g></g><g fill="rgb(96.078491%, 84.309387%, 51.368713%)" fill-opacity="1"><g transform="translate(310.007738, 202.587562)"><g><path d="M 0.378906 0 L 16.53125 0 L 19.398438 -7.472656 L 37.4375 -7.472656 L 40.308594 0 L 56.535156 0 L 36.003906 -52.835938 L 20.910156 -52.835938 Z M 22.570312 -18.644531 L 28.457031 -35.023438 L 34.34375 -18.644531 Z M 22.570312 -18.644531 "/></g></g></g><g fill="rgb(96.078491%, 84.309387%, 51.368713%)" fill-opacity="1"><g transform="translate(126.275236, 236.146192)"><g><path d="M 9.359375 0.109375 C 9.160156 0.0351562 8.738281 0 8.09375 0 L 2.765625 0 C 2.316406 0 1.957031 -0.0664062 1.6875 -0.203125 C 1.425781 -0.347656 1.296875 -0.609375 1.296875 -0.984375 C 1.296875 -1.253906 1.363281 -1.472656 1.5 -1.640625 C 1.832031 -1.554688 2.144531 -1.515625 2.4375 -1.515625 C 2.726562 -1.515625 2.957031 -1.546875 3.125 -1.609375 C 3.300781 -1.671875 3.453125 -1.78125 3.578125 -1.9375 C 3.835938 -2.28125 3.96875 -2.847656 3.96875 -3.640625 L 3.96875 -16.71875 C 3.9375 -17.320312 3.738281 -17.703125 3.375 -17.859375 C 3.257812 -17.910156 3.109375 -17.957031 2.921875 -18 L 2.296875 -18.125 C 1.878906 -18.226562 1.625 -18.351562 1.53125 -18.5 C 1.4375 -18.65625 1.390625 -18.8125 1.390625 -18.96875 C 1.390625 -19.28125 1.453125 -19.523438 1.578125 -19.703125 C 1.773438 -19.640625 2.195312 -19.609375 2.84375 -19.609375 L 8.0625 -19.609375 C 8.5 -19.609375 8.851562 -19.535156 9.125 -19.390625 C 9.394531 -19.253906 9.53125 -19 9.53125 -18.625 C 9.53125 -18.34375 9.460938 -18.125 9.328125 -17.96875 C 8.992188 -18.050781 8.640625 -18.09375 8.265625 -18.09375 C 7.429688 -18.09375 7.003906 -17.421875 6.984375 -16.078125 L 6.984375 -10.421875 L 17.21875 -10.421875 L 17.21875 -16.71875 C 17.1875 -17.320312 16.988281 -17.703125 16.625 -17.859375 C 16.507812 -17.910156 16.351562 -17.957031 16.15625 -18 L 15.546875 -18.125 C 15.128906 -18.226562 14.875 -18.351562 14.78125 -18.5 C 14.6875 -18.65625 14.640625 -18.8125 14.640625 -18.96875 C 14.640625 -19.300781 14.703125 -19.546875 14.828125 -19.703125 C 15.023438 -19.640625 15.445312 -19.609375 16.09375 -19.609375 L 21.296875 -19.609375 C 21.742188 -19.609375 22.097656 -19.535156 22.359375 -19.390625 C 22.628906 -19.253906 22.765625 -19 22.765625 -18.625 C 22.765625 -18.34375 22.695312 -18.125 22.5625 -17.96875 C 22.238281 -18.050781 21.882812 -18.09375 21.5 -18.09375 C 20.675781 -18.09375 20.253906 -17.421875 20.234375 -16.078125 L 20.234375 -3.015625 C 20.234375 -2.535156 20.304688 -2.222656 20.453125 -2.078125 C 20.660156 -1.835938 20.921875 -1.6875 21.234375 -1.625 C 21.554688 -1.5625 21.816406 -1.503906 22.015625 -1.453125 C 22.222656 -1.410156 22.394531 -1.359375 22.53125 -1.296875 C 22.800781 -1.160156 22.9375 -0.925781 22.9375 -0.59375 C 22.9375 -0.300781 22.867188 -0.0664062 22.734375 0.109375 C 22.535156 0.0351562 22.113281 0 21.46875 0 L 16.140625 0 C 15.691406 0 15.332031 -0.0664062 15.0625 -0.203125 C 14.800781 -0.347656 14.671875 -0.609375 14.671875 -0.984375 C 14.671875 -1.253906 14.738281 -1.472656 14.875 -1.640625 C 15.195312 -1.554688 15.5 -1.515625 15.78125 -1.515625 C 16.0625 -1.515625 16.273438 -1.539062 16.421875 -1.59375 C 16.578125 -1.65625 16.710938 -1.765625 16.828125 -1.921875 C 17.066406 -2.234375 17.195312 -2.765625 17.21875 -3.515625 L 17.21875 -8.65625 L 6.984375 -8.65625 L 6.984375 -3.015625 C 6.984375 -2.335938 7.171875 -1.910156 7.546875 -1.734375 C 7.660156 -1.679688 7.820312 -1.632812 8.03125 -1.59375 C 8.238281 -1.550781 8.441406 -1.503906 8.640625 -1.453125 C 8.835938 -1.410156 9.003906 -1.359375 9.140625 -1.296875 C 9.421875 -1.148438 9.5625 -0.914062 9.5625 -0.59375 C 9.5625 -0.300781 9.492188 -0.0664062 9.359375 0.109375 Z M 9.359375 0.109375 "/></g></g></g><g fill="rgb(96.078491%, 84.309387%, 51.368713%)" fill-opacity="1"><g transform="translate(152.687658, 236.146192)"><g><path d="M 3.96875 -2.28125 C 3.164062 -3.082031 2.535156 -4.054688 2.078125 -5.203125 C 1.617188 -6.359375 1.390625 -7.578125 1.390625 -8.859375 C 1.390625 -10.140625 1.515625 -11.269531 1.765625 -12.25 C 2.023438 -13.226562 2.378906 -14.113281 2.828125 -14.90625 C 3.285156 -15.707031 3.828125 -16.414062 4.453125 -17.03125 C 5.078125 -17.644531 5.753906 -18.160156 6.484375 -18.578125 C 7.960938 -19.421875 9.566406 -19.84375 11.296875 -19.84375 C 13.921875 -19.84375 16.0625 -19.007812 17.71875 -17.34375 C 19.445312 -15.601562 20.3125 -13.3125 20.3125 -10.46875 C 20.3125 -8.332031 19.832031 -6.410156 18.875 -4.703125 C 18 -3.148438 16.785156 -1.929688 15.234375 -1.046875 C 13.753906 -0.179688 12.257812 0.25 10.75 0.25 C 9.25 0.25 7.945312 0.03125 6.84375 -0.40625 C 5.738281 -0.851562 4.78125 -1.476562 3.96875 -2.28125 Z M 6.125 -15.65625 C 5.625 -14.945312 5.253906 -14.085938 5.015625 -13.078125 C 4.773438 -12.078125 4.65625 -11 4.65625 -9.84375 C 4.65625 -8.6875 4.765625 -7.628906 4.984375 -6.671875 C 5.203125 -5.710938 5.554688 -4.867188 6.046875 -4.140625 C 7.109375 -2.566406 8.675781 -1.78125 10.75 -1.78125 C 12.851562 -1.78125 14.441406 -2.46875 15.515625 -3.84375 C 16.554688 -5.175781 17.078125 -7.078125 17.078125 -9.546875 C 17.078125 -13.335938 15.953125 -15.882812 13.703125 -17.1875 C 12.898438 -17.632812 11.945312 -17.859375 10.84375 -17.859375 C 9.75 -17.859375 8.8125 -17.664062 8.03125 -17.28125 C 7.257812 -16.90625 6.625 -16.363281 6.125 -15.65625 Z M 6.125 -15.65625 "/></g></g></g><g fill="rgb(96.078491%, 84.309387%, 51.368713%)" fill-opacity="1"><g transform="translate(176.607232, 236.146192)"><g><path d="M 14.875 0.109375 C 14.675781 0.0351562 14.253906 0 13.609375 0 L 6.296875 0 C 5.847656 0 5.488281 -0.0664062 5.21875 -0.203125 C 4.957031 -0.347656 4.828125 -0.609375 4.828125 -0.984375 C 4.828125 -1.242188 4.894531 -1.460938 5.03125 -1.640625 C 5.351562 -1.554688 5.65625 -1.515625 5.9375 -1.515625 C 6.226562 -1.515625 6.5 -1.539062 6.75 -1.59375 C 7.007812 -1.65625 7.257812 -1.765625 7.5 -1.921875 C 8.039062 -2.265625 8.328125 -2.796875 8.359375 -3.515625 L 8.359375 -17.734375 L 6.703125 -17.734375 C 5.460938 -17.734375 4.648438 -17.675781 4.265625 -17.5625 C 3.890625 -17.445312 3.601562 -17.300781 3.40625 -17.125 C 3.21875 -16.945312 3.066406 -16.703125 2.953125 -16.390625 C 2.742188 -15.859375 2.578125 -14.945312 2.453125 -13.65625 C 2.265625 -13.613281 2.09375 -13.59375 1.9375 -13.59375 C 1.601562 -13.59375 1.390625 -13.679688 1.296875 -13.859375 C 1.203125 -14.035156 1.132812 -14.21875 1.09375 -14.40625 C 1.0625 -14.601562 1.035156 -14.816406 1.015625 -15.046875 C 0.984375 -15.503906 0.96875 -15.992188 0.96875 -16.515625 C 0.96875 -17.941406 1.078125 -18.847656 1.296875 -19.234375 C 1.523438 -19.640625 1.972656 -19.84375 2.640625 -19.84375 C 2.765625 -19.84375 2.945312 -19.828125 3.1875 -19.796875 C 3.4375 -19.773438 3.796875 -19.75 4.265625 -19.71875 C 5.535156 -19.644531 7.054688 -19.609375 8.828125 -19.609375 L 11 -19.609375 C 13.46875 -19.609375 15.117188 -19.644531 15.953125 -19.71875 C 16.796875 -19.800781 17.316406 -19.84375 17.515625 -19.84375 C 17.722656 -19.84375 17.910156 -19.8125 18.078125 -19.75 C 18.253906 -19.695312 18.390625 -19.613281 18.484375 -19.5 C 18.648438 -19.3125 18.734375 -19.078125 18.734375 -18.796875 C 18.734375 -18.367188 18.71875 -18.023438 18.6875 -17.765625 C 18.664062 -17.515625 18.640625 -17.210938 18.609375 -16.859375 C 18.578125 -16.515625 18.535156 -16.15625 18.484375 -15.78125 C 18.367188 -14.894531 18.222656 -14.285156 18.046875 -13.953125 C 17.867188 -13.710938 17.660156 -13.59375 17.421875 -13.59375 C 17.179688 -13.59375 16.96875 -13.613281 16.78125 -13.65625 L 16.796875 -14.46875 C 16.796875 -15.21875 16.75 -15.8125 16.65625 -16.25 C 16.570312 -16.695312 16.394531 -17.023438 16.125 -17.234375 C 15.851562 -17.453125 15.460938 -17.585938 14.953125 -17.640625 C 14.441406 -17.703125 13.757812 -17.734375 12.90625 -17.734375 L 11.375 -17.734375 L 11.375 -3.015625 C 11.375 -2.398438 11.863281 -1.972656 12.84375 -1.734375 C 13.082031 -1.679688 13.304688 -1.632812 13.515625 -1.59375 C 13.734375 -1.550781 13.945312 -1.503906 14.15625 -1.453125 C 14.363281 -1.410156 14.535156 -1.359375 14.671875 -1.296875 C 14.941406 -1.160156 15.078125 -0.925781 15.078125 -0.59375 C 15.078125 -0.300781 15.007812 -0.0664062 14.875 0.109375 Z M 14.875 0.109375 "/></g></g></g><g fill="rgb(96.078491%, 84.309387%, 51.368713%)" fill-opacity="1"><g transform="translate(198.315203, 236.146192)"><g><path d="M 15.453125 -5.6875 C 15.679688 -5.882812 15.925781 -5.984375 16.1875 -5.984375 C 16.582031 -5.984375 16.804688 -5.925781 16.859375 -5.8125 C 17.191406 -5.15625 17.359375 -4.054688 17.359375 -2.515625 C 17.359375 -1.453125 17.238281 -0.679688 17 -0.203125 C 16.925781 -0.0664062 16.847656 0 16.765625 0 L 2.640625 0 C 1.628906 0 1.125 -0.300781 1.125 -0.90625 C 1.125 -1.226562 1.191406 -1.476562 1.328125 -1.65625 C 1.617188 -1.5625 1.898438 -1.515625 2.171875 -1.515625 C 2.441406 -1.515625 2.675781 -1.535156 2.875 -1.578125 C 3.070312 -1.628906 3.253906 -1.722656 3.421875 -1.859375 C 3.835938 -2.171875 4.046875 -2.703125 4.046875 -3.453125 L 4.046875 -16.40625 C 4.046875 -17.144531 3.742188 -17.617188 3.140625 -17.828125 C 2.972656 -17.890625 2.796875 -17.941406 2.609375 -17.984375 C 2.429688 -18.035156 2.257812 -18.082031 2.09375 -18.125 C 1.925781 -18.175781 1.78125 -18.226562 1.65625 -18.28125 C 1.363281 -18.4375 1.21875 -18.644531 1.21875 -18.90625 C 1.21875 -19.257812 1.285156 -19.515625 1.421875 -19.671875 C 1.578125 -19.628906 1.726562 -19.609375 1.875 -19.609375 L 14.953125 -19.609375 C 15.742188 -19.609375 16.238281 -19.535156 16.4375 -19.390625 C 16.789062 -19.128906 16.96875 -18.566406 16.96875 -17.703125 C 16.96875 -16.859375 16.894531 -16.171875 16.75 -15.640625 C 16.613281 -15.117188 16.515625 -14.804688 16.453125 -14.703125 C 16.367188 -14.546875 16.203125 -14.46875 15.953125 -14.46875 C 15.597656 -14.46875 15.351562 -14.515625 15.21875 -14.609375 C 15.09375 -14.703125 15.023438 -14.769531 15.015625 -14.8125 C 14.898438 -16.03125 14.707031 -16.804688 14.4375 -17.140625 C 14.164062 -17.472656 13.84375 -17.703125 13.46875 -17.828125 C 13.101562 -17.953125 12.617188 -18.015625 12.015625 -18.015625 L 9.171875 -18.015625 C 8.265625 -18.015625 7.710938 -17.925781 7.515625 -17.75 C 7.316406 -17.570312 7.191406 -17.363281 7.140625 -17.125 C 7.085938 -16.894531 7.0625 -16.59375 7.0625 -16.21875 L 7.0625 -10.78125 L 7.8125 -10.765625 C 9.695312 -10.765625 11.445312 -10.929688 13.0625 -11.265625 C 13.175781 -11.203125 13.28125 -11.03125 13.375 -10.75 C 13.46875 -10.476562 13.515625 -10.207031 13.515625 -9.9375 C 13.515625 -9.476562 13.4375 -9.078125 13.28125 -8.734375 C 12.71875 -8.679688 12.070312 -8.65625 11.34375 -8.65625 C 10.613281 -8.65625 9.1875 -8.773438 7.0625 -9.015625 L 7.0625 -3.25 C 7.0625 -2.601562 7.226562 -2.171875 7.5625 -1.953125 C 7.851562 -1.765625 8.375 -1.671875 9.125 -1.671875 L 11.0625 -1.71875 C 12.925781 -1.789062 14.140625 -2.050781 14.703125 -2.5 C 15.015625 -2.757812 15.222656 -3.097656 15.328125 -3.515625 C 15.429688 -3.929688 15.484375 -4.347656 15.484375 -4.765625 C 15.484375 -5.191406 15.472656 -5.5 15.453125 -5.6875 Z M 15.453125 -5.6875 "/></g></g></g><g fill="rgb(96.078491%, 84.309387%, 51.368713%)" fill-opacity="1"><g transform="translate(218.987684, 236.146192)"><g><path d="M 17.359375 -3.984375 C 17.359375 -2.054688 17.101562 -0.726562 16.59375 0 L 2.640625 0 C 1.972656 0 1.507812 -0.171875 1.25 -0.515625 C 1.164062 -0.628906 1.125 -0.757812 1.125 -0.90625 C 1.125 -1.226562 1.191406 -1.476562 1.328125 -1.65625 C 1.617188 -1.5625 2 -1.515625 2.46875 -1.515625 C 3.519531 -1.515625 4.046875 -2.160156 4.046875 -3.453125 L 4.046875 -16.578125 C 4.046875 -17.171875 3.796875 -17.570312 3.296875 -17.78125 C 3.148438 -17.84375 2.972656 -17.90625 2.765625 -17.96875 L 2.125 -18.125 C 1.71875 -18.226562 1.460938 -18.351562 1.359375 -18.5 C 1.265625 -18.65625 1.21875 -18.8125 1.21875 -18.96875 C 1.21875 -19.289062 1.285156 -19.535156 1.421875 -19.703125 C 1.617188 -19.640625 2.039062 -19.609375 2.6875 -19.609375 L 8.265625 -19.609375 C 8.703125 -19.609375 9.050781 -19.535156 9.3125 -19.390625 C 9.582031 -19.253906 9.71875 -19 9.71875 -18.625 C 9.71875 -18.332031 9.65625 -18.113281 9.53125 -17.96875 C 9.207031 -18.050781 8.894531 -18.09375 8.59375 -18.09375 C 8.300781 -18.09375 8.070312 -18.0625 7.90625 -18 C 7.738281 -17.9375 7.59375 -17.828125 7.46875 -17.671875 C 7.207031 -17.347656 7.070312 -16.816406 7.0625 -16.078125 L 7.0625 -3.140625 C 7.070312 -2.546875 7.242188 -2.144531 7.578125 -1.9375 C 7.859375 -1.757812 8.375 -1.671875 9.125 -1.671875 L 10.09375 -1.6875 L 11.1875 -1.703125 C 13.039062 -1.703125 14.253906 -2.113281 14.828125 -2.9375 C 15.109375 -3.351562 15.296875 -3.867188 15.390625 -4.484375 C 15.492188 -5.097656 15.582031 -5.816406 15.65625 -6.640625 C 15.800781 -6.722656 15.988281 -6.765625 16.21875 -6.765625 C 16.644531 -6.765625 16.9375 -6.710938 17.09375 -6.609375 C 17.269531 -5.910156 17.359375 -5.035156 17.359375 -3.984375 Z M 17.359375 -3.984375 "/></g></g></g><g fill="rgb(96.078491%, 84.309387%, 51.368713%)" fill-opacity="1"><g transform="translate(239.522946, 236.146192)"><g/></g></g></svg>