<svg xmlns="http://www.w3.org/2000/svg" xmlns:xlink="http://www.w3.org/1999/xlink" width="100" zoomAndPan="magnify" viewBox="0 0 75 74.999997" height="100" preserveAspectRatio="xMidYMid meet" version="1.0"><defs><g><g id="id1"/></g><clipPath id="id2"><path d="M 31 15 L 57.570312 15 L 57.570312 59.089844 L 31 59.089844 Z M 31 15 " clip-rule="nonzero"/></clipPath><clipPath id="id3"><path d="M 57.488281 30.070312 C 57.453125 27.65625 56.957031 25.296875 56.027344 23.035156 C 56.019531 23.011719 56.011719 22.984375 56 22.960938 C 55.238281 21.128906 54.191406 19.363281 52.867188 17.6875 C 52.15625 16.789062 51.367188 15.914062 50.5 15.070312 L 48.054688 17.535156 L 47.9375 17.652344 L 47.914062 17.679688 L 45.246094 20.367188 L 45.234375 20.378906 L 44.214844 21.40625 L 44.199219 21.421875 L 43.894531 21.730469 L 43.875 21.75 L 41.988281 23.652344 L 41.972656 23.667969 L 40.5625 25.089844 L 40.550781 25.101562 L 38.054688 27.617188 L 38.039062 27.632812 L 35.4375 30.253906 L 35.242188 30.453125 C 35.5 30.871094 35.800781 31.261719 36.144531 31.613281 L 37.617188 33.0625 L 37.789062 32.886719 L 37.808594 32.867188 L 40.429688 30.226562 L 42.8125 27.824219 L 44.195312 26.429688 C 44.28125 26.585938 44.359375 26.742188 44.429688 26.902344 C 44.90625 27.929688 45.15625 29.003906 45.171875 30.09375 C 45.1875 31.128906 44.988281 32.152344 44.597656 33.125 C 44.589844 33.136719 44.585938 33.152344 44.582031 33.164062 C 44.148438 34.226562 43.480469 35.226562 42.601562 36.109375 L 37.914062 40.832031 L 37.929688 40.847656 L 37.917969 40.863281 L 37.503906 41.269531 L 37.488281 41.28125 L 36.875 41.886719 L 36.859375 41.898438 L 36.011719 42.730469 L 35.992188 42.746094 L 34.339844 44.371094 L 34.320312 44.390625 L 33.859375 44.84375 C 32.832031 45.90625 32.125 47.25 31.804688 48.703125 C 31.800781 48.714844 31.796875 48.730469 31.792969 48.746094 C 31.652344 49.390625 31.59375 50.058594 31.613281 50.730469 C 31.65625 54.148438 36.027344 58.046875 36.027344 58.046875 L 36.039062 58.0625 L 36.546875 58.558594 L 36.558594 58.574219 L 37.066406 59.070312 L 51.175781 44.851562 C 55.324219 40.671875 57.566406 35.421875 57.488281 30.070312 Z M 48.703125 42.296875 L 42.691406 48.355469 L 41.792969 49.261719 L 41.773438 49.28125 L 37.121094 53.96875 L 37.105469 53.957031 C 37.105469 53.957031 35.359375 52.398438 35.0625 50.621094 C 35.042969 49.992188 35.144531 49.378906 35.359375 48.796875 C 35.585938 48.203125 35.921875 47.667969 36.359375 47.214844 L 36.78125 46.804688 L 36.800781 46.785156 L 39.71875 43.917969 L 39.722656 43.917969 L 45.566406 37.710938 C 46.738281 36.53125 47.613281 35.183594 48.15625 33.75 C 48.1875 33.667969 48.214844 33.585938 48.246094 33.503906 C 48.625 32.414062 48.816406 31.277344 48.800781 30.132812 C 48.792969 29.75 48.765625 29.371094 48.714844 28.996094 C 48.714844 28.988281 48.714844 28.984375 48.710938 28.976562 C 48.636719 28.414062 48.511719 27.859375 48.339844 27.3125 C 48.335938 27.296875 48.332031 27.285156 48.328125 27.269531 C 47.960938 26.132812 46.820312 23.785156 46.820312 23.785156 L 50.320312 20.257812 C 50.339844 20.300781 50.363281 20.34375 50.386719 20.382812 C 51.1875 21.449219 51.855469 22.5625 52.390625 23.71875 C 53.316406 25.71875 53.8125 27.804688 53.878906 29.921875 C 53.878906 29.933594 53.878906 29.953125 53.878906 29.964844 C 53.882812 30.03125 53.882812 30.09375 53.882812 30.160156 C 53.945312 34.558594 52.105469 38.867188 48.703125 42.296875 Z M 48.703125 42.296875 " clip-rule="nonzero"/></clipPath><linearGradient x1="119.069938" gradientTransform="matrix(0.120751, 0, 0, 0.121699, 17.21481, 2.113692)" y1="287.24301" x2="334.169997" gradientUnits="userSpaceOnUse" y2="287.24301" xlink:type="simple" xlink:actuate="onLoad" id="id4" xlink:show="other"><stop stop-opacity="1" stop-color="rgb(77.598572%, 55.699158%, 23.498535%)" offset="0"/><stop stop-opacity="1" stop-color="rgb(77.696228%, 55.845642%, 23.638916%)" offset="0.0078125"/><stop stop-opacity="1" stop-color="rgb(77.902222%, 56.15387%, 23.936462%)" offset="0.015625"/><stop stop-opacity="1" stop-color="rgb(78.117371%, 56.478882%, 24.247742%)" offset="0.0234375"/><stop stop-opacity="1" stop-color="rgb(78.334045%, 56.802368%, 24.559021%)" offset="0.03125"/><stop stop-opacity="1" stop-color="rgb(78.549194%, 57.12738%, 24.8703%)" offset="0.0390625"/><stop stop-opacity="1" stop-color="rgb(78.765869%, 57.452393%, 25.183105%)" offset="0.046875"/><stop stop-opacity="1" stop-color="rgb(78.981018%, 57.775879%, 25.494385%)" offset="0.0546875"/><stop stop-opacity="1" stop-color="rgb(79.197693%, 58.100891%, 25.805664%)" offset="0.0625"/><stop stop-opacity="1" stop-color="rgb(79.412842%, 58.424377%, 26.116943%)" offset="0.0703125"/><stop stop-opacity="1" stop-color="rgb(79.629517%, 58.74939%, 26.428223%)" offset="0.078125"/><stop stop-opacity="1" stop-color="rgb(79.844666%, 59.072876%, 26.741028%)" offset="0.0859375"/><stop stop-opacity="1" stop-color="rgb(80.059814%, 59.397888%, 27.052307%)" offset="0.09375"/><stop stop-opacity="1" stop-color="rgb(80.276489%, 59.7229%, 27.363586%)" offset="0.101562"/><stop stop-opacity="1" stop-color="rgb(80.491638%, 60.046387%, 27.674866%)" offset="0.109375"/><stop stop-opacity="1" stop-color="rgb(80.708313%, 60.371399%, 27.986145%)" offset="0.117187"/><stop stop-opacity="1" stop-color="rgb(80.923462%, 60.694885%, 28.29895%)" offset="0.125"/><stop stop-opacity="1" stop-color="rgb(81.140137%, 61.019897%, 28.610229%)" offset="0.132812"/><stop stop-opacity="1" stop-color="rgb(81.355286%, 61.34491%, 28.921509%)" offset="0.140625"/><stop stop-opacity="1" stop-color="rgb(81.57196%, 61.668396%, 29.232788%)" offset="0.148438"/><stop stop-opacity="1" stop-color="rgb(81.787109%, 61.993408%, 29.544067%)" offset="0.15625"/><stop stop-opacity="1" stop-color="rgb(82.003784%, 62.316895%, 29.855347%)" offset="0.164062"/><stop stop-opacity="1" stop-color="rgb(82.218933%, 62.641907%, 30.168152%)" offset="0.171875"/><stop stop-opacity="1" stop-color="rgb(82.435608%, 62.966919%, 30.479431%)" offset="0.179688"/><stop stop-opacity="1" stop-color="rgb(82.650757%, 63.290405%, 30.79071%)" offset="0.1875"/><stop stop-opacity="1" stop-color="rgb(82.867432%, 63.615417%, 31.10199%)" offset="0.195312"/><stop stop-opacity="1" stop-color="rgb(83.082581%, 63.938904%, 31.413269%)" offset="0.203125"/><stop stop-opacity="1" stop-color="rgb(83.299255%, 64.263916%, 31.726074%)" offset="0.210937"/><stop stop-opacity="1" stop-color="rgb(83.514404%, 64.588928%, 32.037354%)" offset="0.21875"/><stop stop-opacity="1" stop-color="rgb(83.731079%, 64.912415%, 32.348633%)" offset="0.226562"/><stop stop-opacity="1" stop-color="rgb(83.946228%, 65.237427%, 32.659912%)" offset="0.234375"/><stop stop-opacity="1" stop-color="rgb(84.162903%, 65.560913%, 32.971191%)" offset="0.242187"/><stop stop-opacity="1" stop-color="rgb(84.378052%, 65.885925%, 33.282471%)" offset="0.25"/><stop stop-opacity="1" stop-color="rgb(84.593201%, 66.210938%, 33.595276%)" offset="0.257812"/><stop stop-opacity="1" stop-color="rgb(84.809875%, 66.534424%, 33.906555%)" offset="0.265625"/><stop stop-opacity="1" stop-color="rgb(85.025024%, 66.859436%, 34.217834%)" offset="0.273437"/><stop stop-opacity="1" stop-color="rgb(85.241699%, 67.182922%, 34.529114%)" offset="0.28125"/><stop stop-opacity="1" stop-color="rgb(85.456848%, 67.507935%, 34.840393%)" offset="0.289062"/><stop stop-opacity="1" stop-color="rgb(85.673523%, 67.832947%, 35.153198%)" offset="0.296875"/><stop stop-opacity="1" stop-color="rgb(85.888672%, 68.156433%, 35.464478%)" offset="0.304687"/><stop stop-opacity="1" stop-color="rgb(86.105347%, 68.481445%, 35.775757%)" offset="0.3125"/><stop stop-opacity="1" stop-color="rgb(86.320496%, 68.804932%, 36.087036%)" offset="0.320312"/><stop stop-opacity="1" stop-color="rgb(86.53717%, 69.129944%, 36.398315%)" offset="0.328125"/><stop stop-opacity="1" stop-color="rgb(86.752319%, 69.454956%, 36.709595%)" offset="0.335937"/><stop stop-opacity="1" stop-color="rgb(86.968994%, 69.778442%, 37.0224%)" offset="0.34375"/><stop stop-opacity="1" stop-color="rgb(87.184143%, 70.103455%, 37.333679%)" offset="0.351562"/><stop stop-opacity="1" stop-color="rgb(87.400818%, 70.426941%, 37.644958%)" offset="0.359375"/><stop stop-opacity="1" stop-color="rgb(87.615967%, 70.751953%, 37.956238%)" offset="0.367187"/><stop stop-opacity="1" stop-color="rgb(87.832642%, 71.075439%, 38.267517%)" offset="0.375"/><stop stop-opacity="1" stop-color="rgb(88.047791%, 71.400452%, 38.580322%)" offset="0.382812"/><stop stop-opacity="1" stop-color="rgb(88.264465%, 71.725464%, 38.891602%)" offset="0.390625"/><stop stop-opacity="1" stop-color="rgb(88.479614%, 72.04895%, 39.202881%)" offset="0.398437"/><stop stop-opacity="1" stop-color="rgb(88.694763%, 72.373962%, 39.51416%)" offset="0.40625"/><stop stop-opacity="1" stop-color="rgb(88.911438%, 72.697449%, 39.825439%)" offset="0.414062"/><stop stop-opacity="1" stop-color="rgb(89.126587%, 73.022461%, 40.136719%)" offset="0.421875"/><stop stop-opacity="1" stop-color="rgb(89.343262%, 73.347473%, 40.449524%)" offset="0.429687"/><stop stop-opacity="1" stop-color="rgb(89.558411%, 73.670959%, 40.760803%)" offset="0.4375"/><stop stop-opacity="1" stop-color="rgb(89.775085%, 73.995972%, 41.072083%)" offset="0.445312"/><stop stop-opacity="1" stop-color="rgb(89.990234%, 74.319458%, 41.383362%)" offset="0.453125"/><stop stop-opacity="1" stop-color="rgb(90.206909%, 74.64447%, 41.694641%)" offset="0.460937"/><stop stop-opacity="1" stop-color="rgb(90.422058%, 74.969482%, 42.007446%)" offset="0.46875"/><stop stop-opacity="1" stop-color="rgb(90.638733%, 75.292969%, 42.318726%)" offset="0.476562"/><stop stop-opacity="1" stop-color="rgb(90.853882%, 75.617981%, 42.630005%)" offset="0.484375"/><stop stop-opacity="1" stop-color="rgb(91.070557%, 75.941467%, 42.941284%)" offset="0.492187"/><stop stop-opacity="1" stop-color="rgb(91.285706%, 76.266479%, 43.252563%)" offset="0.5"/><stop stop-opacity="1" stop-color="rgb(91.50238%, 76.591492%, 43.563843%)" offset="0.507812"/><stop stop-opacity="1" stop-color="rgb(91.717529%, 76.914978%, 43.876648%)" offset="0.515625"/><stop stop-opacity="1" stop-color="rgb(91.934204%, 77.23999%, 44.187927%)" offset="0.523437"/><stop stop-opacity="1" stop-color="rgb(92.149353%, 77.563477%, 44.499207%)" offset="0.53125"/><stop stop-opacity="1" stop-color="rgb(92.366028%, 77.888489%, 44.810486%)" offset="0.539062"/><stop stop-opacity="1" stop-color="rgb(92.581177%, 78.213501%, 45.121765%)" offset="0.546875"/><stop stop-opacity="1" stop-color="rgb(92.796326%, 78.536987%, 45.43457%)" offset="0.554687"/><stop stop-opacity="1" stop-color="rgb(93.013%, 78.862%, 45.74585%)" offset="0.5625"/><stop stop-opacity="1" stop-color="rgb(93.228149%, 79.185486%, 46.057129%)" offset="0.570312"/><stop stop-opacity="1" stop-color="rgb(93.444824%, 79.510498%, 46.368408%)" offset="0.578125"/><stop stop-opacity="1" stop-color="rgb(93.659973%, 79.83551%, 46.679688%)" offset="0.585937"/><stop stop-opacity="1" stop-color="rgb(93.876648%, 80.158997%, 46.990967%)" offset="0.59375"/><stop stop-opacity="1" stop-color="rgb(94.091797%, 80.484009%, 47.303772%)" offset="0.601562"/><stop stop-opacity="1" stop-color="rgb(94.308472%, 80.807495%, 47.615051%)" offset="0.609375"/><stop stop-opacity="1" stop-color="rgb(94.523621%, 81.132507%, 47.926331%)" offset="0.617187"/><stop stop-opacity="1" stop-color="rgb(94.740295%, 81.45752%, 48.23761%)" offset="0.625"/><stop stop-opacity="1" stop-color="rgb(94.955444%, 81.781006%, 48.548889%)" offset="0.632812"/><stop stop-opacity="1" stop-color="rgb(95.172119%, 82.106018%, 48.861694%)" offset="0.640625"/><stop stop-opacity="1" stop-color="rgb(95.387268%, 82.429504%, 49.172974%)" offset="0.648437"/><stop stop-opacity="1" stop-color="rgb(95.603943%, 82.754517%, 49.484253%)" offset="0.65625"/><stop stop-opacity="1" stop-color="rgb(95.819092%, 83.078003%, 49.795532%)" offset="0.664062"/><stop stop-opacity="1" stop-color="rgb(96.01593%, 83.390808%, 50.099182%)" offset="0.671875"/><stop stop-opacity="1" stop-color="rgb(96.124268%, 83.639526%, 50.364685%)" offset="0.679687"/><stop stop-opacity="1" stop-color="rgb(96.160889%, 83.839417%, 50.601196%)" offset="0.6875"/><stop stop-opacity="1" stop-color="rgb(96.195984%, 84.039307%, 50.836182%)" offset="0.695312"/><stop stop-opacity="1" stop-color="rgb(96.232605%, 84.237671%, 51.072693%)" offset="0.703125"/><stop stop-opacity="1" stop-color="rgb(96.269226%, 84.437561%, 51.307678%)" offset="0.710937"/><stop stop-opacity="1" stop-color="rgb(96.304321%, 84.637451%, 51.544189%)" offset="0.71875"/><stop stop-opacity="1" stop-color="rgb(96.340942%, 84.837341%, 51.779175%)" offset="0.726562"/><stop stop-opacity="1" stop-color="rgb(96.377563%, 85.037231%, 52.015686%)" offset="0.734375"/><stop stop-opacity="1" stop-color="rgb(96.412659%, 85.237122%, 52.250671%)" offset="0.742187"/><stop stop-opacity="1" stop-color="rgb(96.44928%, 85.435486%, 52.487183%)" offset="0.75"/><stop stop-opacity="1" stop-color="rgb(96.485901%, 85.635376%, 52.722168%)" offset="0.757812"/><stop stop-opacity="1" stop-color="rgb(96.520996%, 85.835266%, 52.958679%)" offset="0.765625"/><stop stop-opacity="1" stop-color="rgb(96.557617%, 86.035156%, 53.193665%)" offset="0.773437"/><stop stop-opacity="1" stop-color="rgb(96.592712%, 86.235046%, 53.430176%)" offset="0.78125"/><stop stop-opacity="1" stop-color="rgb(96.629333%, 86.434937%, 53.665161%)" offset="0.789062"/><stop stop-opacity="1" stop-color="rgb(96.665955%, 86.633301%, 53.901672%)" offset="0.796875"/><stop stop-opacity="1" stop-color="rgb(96.70105%, 86.833191%, 54.136658%)" offset="0.804687"/><stop stop-opacity="1" stop-color="rgb(96.737671%, 87.033081%, 54.371643%)" offset="0.8125"/><stop stop-opacity="1" stop-color="rgb(96.774292%, 87.232971%, 54.608154%)" offset="0.820312"/><stop stop-opacity="1" stop-color="rgb(96.809387%, 87.432861%, 54.84314%)" offset="0.828125"/><stop stop-opacity="1" stop-color="rgb(96.846008%, 87.632751%, 55.079651%)" offset="0.835937"/><stop stop-opacity="1" stop-color="rgb(96.882629%, 87.832642%, 55.314636%)" offset="0.84375"/><stop stop-opacity="1" stop-color="rgb(96.917725%, 88.031006%, 55.551147%)" offset="0.851562"/><stop stop-opacity="1" stop-color="rgb(96.954346%, 88.230896%, 55.786133%)" offset="0.859375"/><stop stop-opacity="1" stop-color="rgb(96.990967%, 88.430786%, 56.022644%)" offset="0.867187"/><stop stop-opacity="1" stop-color="rgb(97.026062%, 88.630676%, 56.257629%)" offset="0.875"/><stop stop-opacity="1" stop-color="rgb(97.062683%, 88.830566%, 56.494141%)" offset="0.882812"/><stop stop-opacity="1" stop-color="rgb(97.099304%, 89.030457%, 56.729126%)" offset="0.890625"/><stop stop-opacity="1" stop-color="rgb(97.134399%, 89.228821%, 56.965637%)" offset="0.898437"/><stop stop-opacity="1" stop-color="rgb(97.171021%, 89.428711%, 57.200623%)" offset="0.90625"/><stop stop-opacity="1" stop-color="rgb(97.206116%, 89.628601%, 57.437134%)" offset="0.914062"/><stop stop-opacity="1" stop-color="rgb(97.242737%, 89.828491%, 57.672119%)" offset="0.921875"/><stop stop-opacity="1" stop-color="rgb(97.279358%, 90.028381%, 57.90863%)" offset="0.929687"/><stop stop-opacity="1" stop-color="rgb(97.314453%, 90.228271%, 58.143616%)" offset="0.9375"/><stop stop-opacity="1" stop-color="rgb(97.351074%, 90.426636%, 58.380127%)" offset="0.945312"/><stop stop-opacity="1" stop-color="rgb(97.387695%, 90.626526%, 58.615112%)" offset="0.953125"/><stop stop-opacity="1" stop-color="rgb(97.422791%, 90.826416%, 58.851624%)" offset="0.960937"/><stop stop-opacity="1" stop-color="rgb(97.459412%, 91.026306%, 59.086609%)" offset="0.96875"/><stop stop-opacity="1" stop-color="rgb(97.496033%, 91.226196%, 59.32312%)" offset="0.976562"/><stop stop-opacity="1" stop-color="rgb(97.531128%, 91.426086%, 59.558105%)" offset="0.984375"/><stop stop-opacity="1" stop-color="rgb(97.573853%, 91.662598%, 59.837341%)" offset="1"/></linearGradient><clipPath id="id5"><path d="M 25 8 L 46 8 L 46 41 L 25 41 Z M 25 8 " clip-rule="nonzero"/></clipPath><clipPath id="id6"><path d="M 31.945312 38.738281 L 32.796875 37.90625 L 30.546875 35.183594 C 30.308594 34.804688 30.109375 34.398438 29.949219 33.96875 C 29.621094 33.09375 29.46875 32.171875 29.496094 31.226562 C 29.558594 29.261719 30.402344 27.4375 31.878906 26.09375 L 33.480469 24.46875 L 33.503906 24.441406 L 36.703125 21.199219 L 36.71875 21.214844 L 38.125 19.785156 L 38.136719 19.773438 L 40.023438 17.863281 L 40.042969 17.84375 L 40.34375 17.535156 L 40.359375 17.519531 L 41.386719 16.476562 L 41.394531 16.488281 L 41.617188 16.265625 L 44.054688 13.789062 L 44.082031 13.765625 L 44.195312 13.648438 L 44.207031 13.65625 C 44.882812 12.910156 45.246094 12.050781 45.257812 11.148438 C 45.257812 11.101562 45.257812 11.054688 45.257812 11.011719 C 45.238281 10.195312 44.882812 9.421875 44.308594 8.84375 L 44.035156 8.570312 L 41.488281 11.15625 L 41.460938 11.179688 L 39.03125 13.648438 L 39.023438 13.65625 C 39.019531 13.648438 39.011719 13.644531 39.003906 13.636719 L 37.4375 15.226562 L 37.421875 15.246094 L 37.25 15.417969 C 37.191406 15.472656 37.128906 15.53125 37.066406 15.589844 L 37.058594 15.59375 L 36.511719 16.152344 C 36.507812 16.152344 36.507812 16.15625 36.503906 16.15625 L 29.773438 22.988281 C 27.4375 25.117188 26.097656 28.007812 26 31.121094 C 25.925781 33.523438 26.621094 35.875 27.9375 37.808594 C 28.28125 38.3125 28.667969 38.789062 29.09375 39.226562 L 30.269531 40.382812 L 31.925781 38.753906 Z M 31.945312 38.738281 " clip-rule="nonzero"/></clipPath><linearGradient x1="72.149987" gradientTransform="matrix(0.120751, 0, 0, 0.121699, 17.21481, 2.113692)" y1="183.73599" x2="232.249989" gradientUnits="userSpaceOnUse" y2="183.73599" xlink:type="simple" xlink:actuate="onLoad" id="id7" xlink:show="other"><stop stop-opacity="1" stop-color="rgb(77.598572%, 55.699158%, 23.498535%)" offset="0"/><stop stop-opacity="1" stop-color="rgb(77.655029%, 55.784607%, 23.580933%)" offset="0.0078125"/><stop stop-opacity="1" stop-color="rgb(77.819824%, 56.031799%, 23.81897%)" offset="0.015625"/><stop stop-opacity="1" stop-color="rgb(78.036499%, 56.355286%, 24.130249%)" offset="0.0234375"/><stop stop-opacity="1" stop-color="rgb(78.251648%, 56.680298%, 24.441528%)" offset="0.03125"/><stop stop-opacity="1" stop-color="rgb(78.468323%, 57.003784%, 24.752808%)" offset="0.0390625"/><stop stop-opacity="1" stop-color="rgb(78.683472%, 57.328796%, 25.064087%)" offset="0.046875"/><stop stop-opacity="1" stop-color="rgb(78.900146%, 57.653809%, 25.376892%)" offset="0.0546875"/><stop stop-opacity="1" stop-color="rgb(79.115295%, 57.977295%, 25.688171%)" offset="0.0625"/><stop stop-opacity="1" stop-color="rgb(79.33197%, 58.302307%, 25.999451%)" offset="0.0703125"/><stop stop-opacity="1" stop-color="rgb(79.547119%, 58.627319%, 26.31073%)" offset="0.078125"/><stop stop-opacity="1" stop-color="rgb(79.763794%, 58.950806%, 26.622009%)" offset="0.0859375"/><stop stop-opacity="1" stop-color="rgb(79.978943%, 59.275818%, 26.934814%)" offset="0.09375"/><stop stop-opacity="1" stop-color="rgb(80.195618%, 59.599304%, 27.246094%)" offset="0.101562"/><stop stop-opacity="1" stop-color="rgb(80.410767%, 59.924316%, 27.557373%)" offset="0.109375"/><stop stop-opacity="1" stop-color="rgb(80.627441%, 60.249329%, 27.868652%)" offset="0.117188"/><stop stop-opacity="1" stop-color="rgb(80.84259%, 60.572815%, 28.181458%)" offset="0.125"/><stop stop-opacity="1" stop-color="rgb(81.059265%, 60.897827%, 28.492737%)" offset="0.132813"/><stop stop-opacity="1" stop-color="rgb(81.274414%, 61.222839%, 28.804016%)" offset="0.140625"/><stop stop-opacity="1" stop-color="rgb(81.491089%, 61.546326%, 29.115295%)" offset="0.148438"/><stop stop-opacity="1" stop-color="rgb(81.706238%, 61.871338%, 29.426575%)" offset="0.15625"/><stop stop-opacity="1" stop-color="rgb(81.922913%, 62.194824%, 29.73938%)" offset="0.164062"/><stop stop-opacity="1" stop-color="rgb(82.138062%, 62.519836%, 30.050659%)" offset="0.171875"/><stop stop-opacity="1" stop-color="rgb(82.354736%, 62.844849%, 30.361938%)" offset="0.179688"/><stop stop-opacity="1" stop-color="rgb(82.569885%, 63.168335%, 30.673218%)" offset="0.1875"/><stop stop-opacity="1" stop-color="rgb(82.78656%, 63.493347%, 30.984497%)" offset="0.195312"/><stop stop-opacity="1" stop-color="rgb(83.001709%, 63.818359%, 31.297302%)" offset="0.203125"/><stop stop-opacity="1" stop-color="rgb(83.218384%, 64.141846%, 31.608582%)" offset="0.210937"/><stop stop-opacity="1" stop-color="rgb(83.433533%, 64.466858%, 31.919861%)" offset="0.21875"/><stop stop-opacity="1" stop-color="rgb(83.650208%, 64.790344%, 32.23114%)" offset="0.226563"/><stop stop-opacity="1" stop-color="rgb(83.865356%, 65.115356%, 32.543945%)" offset="0.234375"/><stop stop-opacity="1" stop-color="rgb(84.082031%, 65.440369%, 32.855225%)" offset="0.242188"/><stop stop-opacity="1" stop-color="rgb(84.29718%, 65.763855%, 33.166504%)" offset="0.25"/><stop stop-opacity="1" stop-color="rgb(84.513855%, 66.088867%, 33.477783%)" offset="0.257812"/><stop stop-opacity="1" stop-color="rgb(84.729004%, 66.413879%, 33.789062%)" offset="0.265625"/><stop stop-opacity="1" stop-color="rgb(84.945679%, 66.737366%, 34.101868%)" offset="0.273438"/><stop stop-opacity="1" stop-color="rgb(85.160828%, 67.062378%, 34.413147%)" offset="0.28125"/><stop stop-opacity="1" stop-color="rgb(85.377502%, 67.385864%, 34.724426%)" offset="0.289062"/><stop stop-opacity="1" stop-color="rgb(85.592651%, 67.710876%, 35.035706%)" offset="0.296875"/><stop stop-opacity="1" stop-color="rgb(85.8078%, 68.035889%, 35.346985%)" offset="0.304688"/><stop stop-opacity="1" stop-color="rgb(86.024475%, 68.359375%, 35.65979%)" offset="0.3125"/><stop stop-opacity="1" stop-color="rgb(86.239624%, 68.684387%, 35.971069%)" offset="0.320312"/><stop stop-opacity="1" stop-color="rgb(86.456299%, 69.009399%, 36.282349%)" offset="0.328125"/><stop stop-opacity="1" stop-color="rgb(86.671448%, 69.332886%, 36.593628%)" offset="0.335938"/><stop stop-opacity="1" stop-color="rgb(86.888123%, 69.657898%, 36.906433%)" offset="0.34375"/><stop stop-opacity="1" stop-color="rgb(87.103271%, 69.98291%, 37.217712%)" offset="0.351563"/><stop stop-opacity="1" stop-color="rgb(87.319946%, 70.306396%, 37.528992%)" offset="0.359375"/><stop stop-opacity="1" stop-color="rgb(87.535095%, 70.631409%, 37.840271%)" offset="0.367188"/><stop stop-opacity="1" stop-color="rgb(87.75177%, 70.954895%, 38.15155%)" offset="0.375"/><stop stop-opacity="1" stop-color="rgb(87.966919%, 71.279907%, 38.464355%)" offset="0.382812"/><stop stop-opacity="1" stop-color="rgb(88.183594%, 71.604919%, 38.775635%)" offset="0.390625"/><stop stop-opacity="1" stop-color="rgb(88.398743%, 71.928406%, 39.086914%)" offset="0.398438"/><stop stop-opacity="1" stop-color="rgb(88.615417%, 72.253418%, 39.398193%)" offset="0.40625"/><stop stop-opacity="1" stop-color="rgb(88.830566%, 72.57843%, 39.709473%)" offset="0.414062"/><stop stop-opacity="1" stop-color="rgb(89.047241%, 72.901917%, 40.022278%)" offset="0.421875"/><stop stop-opacity="1" stop-color="rgb(89.26239%, 73.226929%, 40.333557%)" offset="0.429688"/><stop stop-opacity="1" stop-color="rgb(89.479065%, 73.550415%, 40.644836%)" offset="0.4375"/><stop stop-opacity="1" stop-color="rgb(89.694214%, 73.875427%, 40.956116%)" offset="0.445312"/><stop stop-opacity="1" stop-color="rgb(89.910889%, 74.200439%, 41.268921%)" offset="0.453125"/><stop stop-opacity="1" stop-color="rgb(90.126038%, 74.523926%, 41.5802%)" offset="0.460937"/><stop stop-opacity="1" stop-color="rgb(90.342712%, 74.848938%, 41.891479%)" offset="0.46875"/><stop stop-opacity="1" stop-color="rgb(90.557861%, 75.17395%, 42.202759%)" offset="0.476562"/><stop stop-opacity="1" stop-color="rgb(90.774536%, 75.497437%, 42.514038%)" offset="0.484375"/><stop stop-opacity="1" stop-color="rgb(90.989685%, 75.822449%, 42.826843%)" offset="0.492188"/><stop stop-opacity="1" stop-color="rgb(91.20636%, 76.145935%, 43.138123%)" offset="0.5"/><stop stop-opacity="1" stop-color="rgb(91.421509%, 76.470947%, 43.449402%)" offset="0.507812"/><stop stop-opacity="1" stop-color="rgb(91.638184%, 76.795959%, 43.760681%)" offset="0.515625"/><stop stop-opacity="1" stop-color="rgb(91.853333%, 77.119446%, 44.07196%)" offset="0.523437"/><stop stop-opacity="1" stop-color="rgb(92.070007%, 77.444458%, 44.384766%)" offset="0.53125"/><stop stop-opacity="1" stop-color="rgb(92.285156%, 77.76947%, 44.696045%)" offset="0.539062"/><stop stop-opacity="1" stop-color="rgb(92.501831%, 78.092957%, 45.007324%)" offset="0.546875"/><stop stop-opacity="1" stop-color="rgb(92.71698%, 78.417969%, 45.318604%)" offset="0.554687"/><stop stop-opacity="1" stop-color="rgb(92.933655%, 78.741455%, 45.631409%)" offset="0.5625"/><stop stop-opacity="1" stop-color="rgb(93.148804%, 79.066467%, 45.942688%)" offset="0.570312"/><stop stop-opacity="1" stop-color="rgb(93.365479%, 79.391479%, 46.253967%)" offset="0.578125"/><stop stop-opacity="1" stop-color="rgb(93.580627%, 79.714966%, 46.565247%)" offset="0.585937"/><stop stop-opacity="1" stop-color="rgb(93.797302%, 80.039978%, 46.876526%)" offset="0.59375"/><stop stop-opacity="1" stop-color="rgb(94.012451%, 80.36499%, 47.189331%)" offset="0.601562"/><stop stop-opacity="1" stop-color="rgb(94.229126%, 80.688477%, 47.50061%)" offset="0.609375"/><stop stop-opacity="1" stop-color="rgb(94.444275%, 81.013489%, 47.81189%)" offset="0.617187"/><stop stop-opacity="1" stop-color="rgb(94.66095%, 81.336975%, 48.123169%)" offset="0.625"/><stop stop-opacity="1" stop-color="rgb(94.876099%, 81.661987%, 48.434448%)" offset="0.632812"/><stop stop-opacity="1" stop-color="rgb(95.092773%, 81.987%, 48.747253%)" offset="0.640625"/><stop stop-opacity="1" stop-color="rgb(95.307922%, 82.310486%, 49.058533%)" offset="0.648437"/><stop stop-opacity="1" stop-color="rgb(95.524597%, 82.635498%, 49.369812%)" offset="0.65625"/><stop stop-opacity="1" stop-color="rgb(95.739746%, 82.96051%, 49.681091%)" offset="0.664062"/><stop stop-opacity="1" stop-color="rgb(95.956421%, 83.283997%, 49.993896%)" offset="0.671875"/><stop stop-opacity="1" stop-color="rgb(96.096802%, 83.557129%, 50.273132%)" offset="0.679687"/><stop stop-opacity="1" stop-color="rgb(96.147156%, 83.766174%, 50.514221%)" offset="0.6875"/><stop stop-opacity="1" stop-color="rgb(96.183777%, 83.966064%, 50.750732%)" offset="0.695312"/><stop stop-opacity="1" stop-color="rgb(96.218872%, 84.165955%, 50.985718%)" offset="0.703125"/><stop stop-opacity="1" stop-color="rgb(96.255493%, 84.364319%, 51.222229%)" offset="0.710937"/><stop stop-opacity="1" stop-color="rgb(96.292114%, 84.564209%, 51.457214%)" offset="0.71875"/><stop stop-opacity="1" stop-color="rgb(96.327209%, 84.764099%, 51.693726%)" offset="0.726562"/><stop stop-opacity="1" stop-color="rgb(96.363831%, 84.963989%, 51.928711%)" offset="0.734375"/><stop stop-opacity="1" stop-color="rgb(96.400452%, 85.163879%, 52.165222%)" offset="0.742188"/><stop stop-opacity="1" stop-color="rgb(96.435547%, 85.36377%, 52.400208%)" offset="0.75"/><stop stop-opacity="1" stop-color="rgb(96.472168%, 85.56366%, 52.636719%)" offset="0.757812"/><stop stop-opacity="1" stop-color="rgb(96.508789%, 85.762024%, 52.871704%)" offset="0.765625"/><stop stop-opacity="1" stop-color="rgb(96.543884%, 85.961914%, 53.108215%)" offset="0.773438"/><stop stop-opacity="1" stop-color="rgb(96.580505%, 86.161804%, 53.343201%)" offset="0.78125"/><stop stop-opacity="1" stop-color="rgb(96.617126%, 86.361694%, 53.579712%)" offset="0.789063"/><stop stop-opacity="1" stop-color="rgb(96.652222%, 86.561584%, 53.814697%)" offset="0.796875"/><stop stop-opacity="1" stop-color="rgb(96.688843%, 86.761475%, 54.051208%)" offset="0.804688"/><stop stop-opacity="1" stop-color="rgb(96.723938%, 86.961365%, 54.286194%)" offset="0.8125"/><stop stop-opacity="1" stop-color="rgb(96.760559%, 87.159729%, 54.522705%)" offset="0.820313"/><stop stop-opacity="1" stop-color="rgb(96.79718%, 87.359619%, 54.75769%)" offset="0.828125"/><stop stop-opacity="1" stop-color="rgb(96.832275%, 87.559509%, 54.994202%)" offset="0.835937"/><stop stop-opacity="1" stop-color="rgb(96.868896%, 87.759399%, 55.229187%)" offset="0.84375"/><stop stop-opacity="1" stop-color="rgb(96.905518%, 87.95929%, 55.465698%)" offset="0.851562"/><stop stop-opacity="1" stop-color="rgb(96.940613%, 88.15918%, 55.700684%)" offset="0.859375"/><stop stop-opacity="1" stop-color="rgb(96.977234%, 88.35907%, 55.937195%)" offset="0.867187"/><stop stop-opacity="1" stop-color="rgb(97.013855%, 88.55896%, 56.17218%)" offset="0.875"/><stop stop-opacity="1" stop-color="rgb(97.04895%, 88.757324%, 56.408691%)" offset="0.882812"/><stop stop-opacity="1" stop-color="rgb(97.085571%, 88.957214%, 56.643677%)" offset="0.890625"/><stop stop-opacity="1" stop-color="rgb(97.122192%, 89.157104%, 56.880188%)" offset="0.898437"/><stop stop-opacity="1" stop-color="rgb(97.157288%, 89.356995%, 57.115173%)" offset="0.90625"/><stop stop-opacity="1" stop-color="rgb(97.193909%, 89.556885%, 57.351685%)" offset="0.914062"/><stop stop-opacity="1" stop-color="rgb(97.23053%, 89.756775%, 57.58667%)" offset="0.921875"/><stop stop-opacity="1" stop-color="rgb(97.265625%, 89.956665%, 57.823181%)" offset="0.929687"/><stop stop-opacity="1" stop-color="rgb(97.302246%, 90.155029%, 58.059692%)" offset="0.9375"/><stop stop-opacity="1" stop-color="rgb(97.338867%, 90.354919%, 58.294678%)" offset="0.945312"/><stop stop-opacity="1" stop-color="rgb(97.373962%, 90.55481%, 58.531189%)" offset="0.953125"/><stop stop-opacity="1" stop-color="rgb(97.410583%, 90.7547%, 58.766174%)" offset="0.960937"/><stop stop-opacity="1" stop-color="rgb(97.445679%, 90.95459%, 59.002686%)" offset="0.96875"/><stop stop-opacity="1" stop-color="rgb(97.4823%, 91.15448%, 59.237671%)" offset="0.976562"/><stop stop-opacity="1" stop-color="rgb(97.518921%, 91.35437%, 59.474182%)" offset="0.984375"/><stop stop-opacity="1" stop-color="rgb(97.554016%, 91.552734%, 59.709167%)" offset="0.992187"/><stop stop-opacity="1" stop-color="rgb(97.58606%, 91.726685%, 59.913635%)" offset="1"/></linearGradient><clipPath id="id8"><path d="M 17.070312 2.089844 L 39 2.089844 L 39 49 L 17.070312 49 Z M 17.070312 2.089844 " clip-rule="nonzero"/></clipPath><clipPath id="id9"><path d="M 26.867188 43.90625 L 26.863281 43.902344 L 25.371094 42.433594 C 25.035156 42.089844 24.71875 41.730469 24.417969 41.359375 C 23.339844 40.027344 22.492188 38.539062 21.878906 36.90625 C 21.113281 34.871094 20.761719 32.726562 20.828125 30.535156 C 20.96875 25.957031 22.9375 21.71875 26.367188 18.589844 C 26.367188 18.589844 37.589844 7.398438 37.648438 7.335938 C 37.660156 7.324219 37.667969 7.316406 37.675781 7.308594 C 38.394531 6.542969 38.78125 5.65625 38.792969 4.726562 C 38.800781 4.304688 38.726562 3.890625 38.585938 3.492188 C 38.421875 3.039062 38.148438 2.632812 37.808594 2.296875 L 37.632812 2.113281 L 32.578125 7.238281 L 23.972656 15.976562 C 19.792969 19.785156 17.398438 24.949219 17.222656 30.523438 C 17.074219 35.453125 18.734375 40.28125 21.820312 43.976562 C 22.117188 44.335938 22.429688 44.683594 22.753906 45.019531 L 24.273438 46.507812 L 25.460938 47.675781 L 25.480469 47.695312 L 26.347656 48.546875 C 26.363281 47.59375 26.539062 46.664062 26.871094 45.777344 C 27.039062 45.332031 27.242188 44.90625 27.480469 44.507812 L 26.882812 43.921875 Z M 26.867188 43.90625 " clip-rule="nonzero"/></clipPath><linearGradient x1="-1.180006" gradientTransform="matrix(0.120751, 0, 0, 0.121699, 17.21481, 2.113692)" y1="190.76801" x2="178.74999" gradientUnits="userSpaceOnUse" y2="190.76801" xlink:type="simple" xlink:actuate="onLoad" id="id10" xlink:show="other"><stop stop-opacity="1" stop-color="rgb(77.598572%, 55.699158%, 23.498535%)" offset="0"/><stop stop-opacity="1" stop-color="rgb(77.723694%, 55.888367%, 23.680115%)" offset="0.015625"/><stop stop-opacity="1" stop-color="rgb(77.958679%, 56.239319%, 24.017334%)" offset="0.0234375"/><stop stop-opacity="1" stop-color="rgb(78.175354%, 56.564331%, 24.330139%)" offset="0.03125"/><stop stop-opacity="1" stop-color="rgb(78.392029%, 56.889343%, 24.642944%)" offset="0.0390625"/><stop stop-opacity="1" stop-color="rgb(78.608704%, 57.215881%, 24.95575%)" offset="0.046875"/><stop stop-opacity="1" stop-color="rgb(78.825378%, 57.540894%, 25.267029%)" offset="0.0546875"/><stop stop-opacity="1" stop-color="rgb(79.042053%, 57.865906%, 25.579834%)" offset="0.0625"/><stop stop-opacity="1" stop-color="rgb(79.258728%, 58.190918%, 25.892639%)" offset="0.0703125"/><stop stop-opacity="1" stop-color="rgb(79.473877%, 58.517456%, 26.205444%)" offset="0.078125"/><stop stop-opacity="1" stop-color="rgb(79.690552%, 58.842468%, 26.51825%)" offset="0.0859375"/><stop stop-opacity="1" stop-color="rgb(79.907227%, 59.16748%, 26.831055%)" offset="0.09375"/><stop stop-opacity="1" stop-color="rgb(80.123901%, 59.492493%, 27.142334%)" offset="0.101563"/><stop stop-opacity="1" stop-color="rgb(80.340576%, 59.819031%, 27.455139%)" offset="0.109375"/><stop stop-opacity="1" stop-color="rgb(80.557251%, 60.144043%, 27.767944%)" offset="0.117188"/><stop stop-opacity="1" stop-color="rgb(80.773926%, 60.469055%, 28.08075%)" offset="0.125"/><stop stop-opacity="1" stop-color="rgb(80.990601%, 60.794067%, 28.393555%)" offset="0.132813"/><stop stop-opacity="1" stop-color="rgb(81.207275%, 61.120605%, 28.70636%)" offset="0.140625"/><stop stop-opacity="1" stop-color="rgb(81.42395%, 61.445618%, 29.017639%)" offset="0.148438"/><stop stop-opacity="1" stop-color="rgb(81.640625%, 61.77063%, 29.330444%)" offset="0.15625"/><stop stop-opacity="1" stop-color="rgb(81.8573%, 62.097168%, 29.64325%)" offset="0.164062"/><stop stop-opacity="1" stop-color="rgb(82.073975%, 62.42218%, 29.956055%)" offset="0.171875"/><stop stop-opacity="1" stop-color="rgb(82.289124%, 62.747192%, 30.26886%)" offset="0.179688"/><stop stop-opacity="1" stop-color="rgb(82.505798%, 63.072205%, 30.580139%)" offset="0.1875"/><stop stop-opacity="1" stop-color="rgb(82.722473%, 63.398743%, 30.892944%)" offset="0.195312"/><stop stop-opacity="1" stop-color="rgb(82.939148%, 63.723755%, 31.20575%)" offset="0.203125"/><stop stop-opacity="1" stop-color="rgb(83.155823%, 64.048767%, 31.518555%)" offset="0.210938"/><stop stop-opacity="1" stop-color="rgb(83.372498%, 64.373779%, 31.83136%)" offset="0.21875"/><stop stop-opacity="1" stop-color="rgb(83.589172%, 64.700317%, 32.144165%)" offset="0.226562"/><stop stop-opacity="1" stop-color="rgb(83.805847%, 65.02533%, 32.455444%)" offset="0.234375"/><stop stop-opacity="1" stop-color="rgb(84.022522%, 65.350342%, 32.76825%)" offset="0.242188"/><stop stop-opacity="1" stop-color="rgb(84.239197%, 65.675354%, 33.081055%)" offset="0.25"/><stop stop-opacity="1" stop-color="rgb(84.455872%, 66.001892%, 33.39386%)" offset="0.257812"/><stop stop-opacity="1" stop-color="rgb(84.672546%, 66.326904%, 33.706665%)" offset="0.265625"/><stop stop-opacity="1" stop-color="rgb(84.887695%, 66.651917%, 34.01947%)" offset="0.273438"/><stop stop-opacity="1" stop-color="rgb(85.10437%, 66.976929%, 34.33075%)" offset="0.28125"/><stop stop-opacity="1" stop-color="rgb(85.321045%, 67.303467%, 34.643555%)" offset="0.289062"/><stop stop-opacity="1" stop-color="rgb(85.53772%, 67.628479%, 34.95636%)" offset="0.296875"/><stop stop-opacity="1" stop-color="rgb(85.754395%, 67.953491%, 35.269165%)" offset="0.304688"/><stop stop-opacity="1" stop-color="rgb(85.971069%, 68.280029%, 35.58197%)" offset="0.3125"/><stop stop-opacity="1" stop-color="rgb(86.187744%, 68.605042%, 35.89325%)" offset="0.320312"/><stop stop-opacity="1" stop-color="rgb(86.404419%, 68.930054%, 36.206055%)" offset="0.328125"/><stop stop-opacity="1" stop-color="rgb(86.621094%, 69.255066%, 36.51886%)" offset="0.335938"/><stop stop-opacity="1" stop-color="rgb(86.837769%, 69.581604%, 36.831665%)" offset="0.34375"/><stop stop-opacity="1" stop-color="rgb(87.054443%, 69.906616%, 37.14447%)" offset="0.351562"/><stop stop-opacity="1" stop-color="rgb(87.271118%, 70.231628%, 37.457275%)" offset="0.359375"/><stop stop-opacity="1" stop-color="rgb(87.487793%, 70.556641%, 37.768555%)" offset="0.367188"/><stop stop-opacity="1" stop-color="rgb(87.702942%, 70.883179%, 38.08136%)" offset="0.375"/><stop stop-opacity="1" stop-color="rgb(87.919617%, 71.208191%, 38.394165%)" offset="0.382812"/><stop stop-opacity="1" stop-color="rgb(88.136292%, 71.533203%, 38.70697%)" offset="0.390625"/><stop stop-opacity="1" stop-color="rgb(88.352966%, 71.858215%, 39.019775%)" offset="0.398438"/><stop stop-opacity="1" stop-color="rgb(88.569641%, 72.184753%, 39.332581%)" offset="0.40625"/><stop stop-opacity="1" stop-color="rgb(88.786316%, 72.509766%, 39.64386%)" offset="0.414062"/><stop stop-opacity="1" stop-color="rgb(89.002991%, 72.834778%, 39.956665%)" offset="0.421875"/><stop stop-opacity="1" stop-color="rgb(89.219666%, 73.15979%, 40.26947%)" offset="0.429688"/><stop stop-opacity="1" stop-color="rgb(89.43634%, 73.486328%, 40.582275%)" offset="0.4375"/><stop stop-opacity="1" stop-color="rgb(89.653015%, 73.81134%, 40.895081%)" offset="0.445313"/><stop stop-opacity="1" stop-color="rgb(89.86969%, 74.136353%, 41.207886%)" offset="0.453125"/><stop stop-opacity="1" stop-color="rgb(90.086365%, 74.462891%, 41.519165%)" offset="0.460938"/><stop stop-opacity="1" stop-color="rgb(90.301514%, 74.787903%, 41.83197%)" offset="0.46875"/><stop stop-opacity="1" stop-color="rgb(90.518188%, 75.112915%, 42.144775%)" offset="0.476562"/><stop stop-opacity="1" stop-color="rgb(90.734863%, 75.437927%, 42.457581%)" offset="0.484375"/><stop stop-opacity="1" stop-color="rgb(90.951538%, 75.764465%, 42.770386%)" offset="0.492188"/><stop stop-opacity="1" stop-color="rgb(91.168213%, 76.089478%, 43.081665%)" offset="0.5"/><stop stop-opacity="1" stop-color="rgb(91.384888%, 76.41449%, 43.39447%)" offset="0.507812"/><stop stop-opacity="1" stop-color="rgb(91.601562%, 76.739502%, 43.707275%)" offset="0.515625"/><stop stop-opacity="1" stop-color="rgb(91.818237%, 77.06604%, 44.020081%)" offset="0.523438"/><stop stop-opacity="1" stop-color="rgb(92.034912%, 77.391052%, 44.332886%)" offset="0.53125"/><stop stop-opacity="1" stop-color="rgb(92.251587%, 77.716064%, 44.645691%)" offset="0.539062"/><stop stop-opacity="1" stop-color="rgb(92.468262%, 78.041077%, 44.95697%)" offset="0.546875"/><stop stop-opacity="1" stop-color="rgb(92.684937%, 78.367615%, 45.269775%)" offset="0.554688"/><stop stop-opacity="1" stop-color="rgb(92.900085%, 78.692627%, 45.582581%)" offset="0.5625"/><stop stop-opacity="1" stop-color="rgb(93.11676%, 79.017639%, 45.895386%)" offset="0.570312"/><stop stop-opacity="1" stop-color="rgb(93.333435%, 79.342651%, 46.208191%)" offset="0.578125"/><stop stop-opacity="1" stop-color="rgb(93.55011%, 79.669189%, 46.520996%)" offset="0.585938"/><stop stop-opacity="1" stop-color="rgb(93.766785%, 79.994202%, 46.832275%)" offset="0.59375"/><stop stop-opacity="1" stop-color="rgb(93.983459%, 80.319214%, 47.145081%)" offset="0.601563"/><stop stop-opacity="1" stop-color="rgb(94.200134%, 80.645752%, 47.457886%)" offset="0.609375"/><stop stop-opacity="1" stop-color="rgb(94.416809%, 80.970764%, 47.770691%)" offset="0.617188"/><stop stop-opacity="1" stop-color="rgb(94.633484%, 81.295776%, 48.083496%)" offset="0.625"/><stop stop-opacity="1" stop-color="rgb(94.850159%, 81.620789%, 48.394775%)" offset="0.632813"/><stop stop-opacity="1" stop-color="rgb(95.066833%, 81.947327%, 48.707581%)" offset="0.640625"/><stop stop-opacity="1" stop-color="rgb(95.283508%, 82.272339%, 49.020386%)" offset="0.648437"/><stop stop-opacity="1" stop-color="rgb(95.500183%, 82.597351%, 49.333191%)" offset="0.65625"/><stop stop-opacity="1" stop-color="rgb(95.715332%, 82.922363%, 49.645996%)" offset="0.664062"/><stop stop-opacity="1" stop-color="rgb(95.932007%, 83.248901%, 49.958801%)" offset="0.671875"/><stop stop-opacity="1" stop-color="rgb(96.083069%, 83.528137%, 50.242615%)" offset="0.679688"/><stop stop-opacity="1" stop-color="rgb(96.144104%, 83.744812%, 50.489807%)" offset="0.6875"/><stop stop-opacity="1" stop-color="rgb(96.179199%, 83.944702%, 50.726318%)" offset="0.695312"/><stop stop-opacity="1" stop-color="rgb(96.21582%, 84.146118%, 50.96283%)" offset="0.703125"/><stop stop-opacity="1" stop-color="rgb(96.252441%, 84.346008%, 51.199341%)" offset="0.710938"/><stop stop-opacity="1" stop-color="rgb(96.289062%, 84.545898%, 51.435852%)" offset="0.71875"/><stop stop-opacity="1" stop-color="rgb(96.324158%, 84.745789%, 51.672363%)" offset="0.726563"/><stop stop-opacity="1" stop-color="rgb(96.360779%, 84.947205%, 51.908875%)" offset="0.734375"/><stop stop-opacity="1" stop-color="rgb(96.3974%, 85.147095%, 52.145386%)" offset="0.742188"/><stop stop-opacity="1" stop-color="rgb(96.432495%, 85.346985%, 52.381897%)" offset="0.75"/><stop stop-opacity="1" stop-color="rgb(96.469116%, 85.546875%, 52.618408%)" offset="0.757813"/><stop stop-opacity="1" stop-color="rgb(96.505737%, 85.748291%, 52.854919%)" offset="0.765625"/><stop stop-opacity="1" stop-color="rgb(96.542358%, 85.948181%, 53.089905%)" offset="0.773438"/><stop stop-opacity="1" stop-color="rgb(96.577454%, 86.148071%, 53.326416%)" offset="0.78125"/><stop stop-opacity="1" stop-color="rgb(96.614075%, 86.347961%, 53.562927%)" offset="0.789062"/><stop stop-opacity="1" stop-color="rgb(96.650696%, 86.549377%, 53.799438%)" offset="0.796875"/><stop stop-opacity="1" stop-color="rgb(96.685791%, 86.749268%, 54.03595%)" offset="0.804688"/><stop stop-opacity="1" stop-color="rgb(96.722412%, 86.949158%, 54.272461%)" offset="0.8125"/><stop stop-opacity="1" stop-color="rgb(96.759033%, 87.149048%, 54.508972%)" offset="0.820312"/><stop stop-opacity="1" stop-color="rgb(96.795654%, 87.350464%, 54.745483%)" offset="0.828125"/><stop stop-opacity="1" stop-color="rgb(96.83075%, 87.550354%, 54.981995%)" offset="0.835938"/><stop stop-opacity="1" stop-color="rgb(96.867371%, 87.750244%, 55.218506%)" offset="0.84375"/><stop stop-opacity="1" stop-color="rgb(96.903992%, 87.950134%, 55.455017%)" offset="0.851563"/><stop stop-opacity="1" stop-color="rgb(96.939087%, 88.15155%, 55.691528%)" offset="0.859375"/><stop stop-opacity="1" stop-color="rgb(96.975708%, 88.35144%, 55.92804%)" offset="0.867188"/><stop stop-opacity="1" stop-color="rgb(97.012329%, 88.551331%, 56.164551%)" offset="0.875"/><stop stop-opacity="1" stop-color="rgb(97.04895%, 88.751221%, 56.401062%)" offset="0.882813"/><stop stop-opacity="1" stop-color="rgb(97.084045%, 88.952637%, 56.637573%)" offset="0.890625"/><stop stop-opacity="1" stop-color="rgb(97.120667%, 89.152527%, 56.874084%)" offset="0.898438"/><stop stop-opacity="1" stop-color="rgb(97.157288%, 89.352417%, 57.110596%)" offset="0.90625"/><stop stop-opacity="1" stop-color="rgb(97.193909%, 89.552307%, 57.347107%)" offset="0.914063"/><stop stop-opacity="1" stop-color="rgb(97.229004%, 89.753723%, 57.583618%)" offset="0.921875"/><stop stop-opacity="1" stop-color="rgb(97.265625%, 89.953613%, 57.820129%)" offset="0.929688"/><stop stop-opacity="1" stop-color="rgb(97.302246%, 90.153503%, 58.056641%)" offset="0.9375"/><stop stop-opacity="1" stop-color="rgb(97.337341%, 90.353394%, 58.293152%)" offset="0.945312"/><stop stop-opacity="1" stop-color="rgb(97.373962%, 90.55481%, 58.529663%)" offset="0.953125"/><stop stop-opacity="1" stop-color="rgb(97.410583%, 90.7547%, 58.766174%)" offset="0.960938"/><stop stop-opacity="1" stop-color="rgb(97.447205%, 90.95459%, 59.002686%)" offset="0.96875"/><stop stop-opacity="1" stop-color="rgb(97.4823%, 91.15448%, 59.239197%)" offset="0.976563"/><stop stop-opacity="1" stop-color="rgb(97.518921%, 91.355896%, 59.475708%)" offset="0.984375"/><stop stop-opacity="1" stop-color="rgb(97.555542%, 91.555786%, 59.712219%)" offset="0.992188"/><stop stop-opacity="1" stop-color="rgb(97.58606%, 91.72821%, 59.915161%)" offset="1"/></linearGradient></defs><g clip-path="url(#id2)"><g clip-path="url(#id3)"><path fill="url(#id4)" d="M 31.59375 15.070312 L 31.59375 59.070312 L 57.566406 59.070312 L 57.566406 15.070312 Z M 31.59375 15.070312 " fill-rule="nonzero"/></g></g><g clip-path="url(#id5)"><g clip-path="url(#id6)"><path fill="url(#id7)" d="M 25.925781 8.570312 L 25.925781 40.382812 L 45.257812 40.382812 L 45.257812 8.570312 Z M 25.925781 8.570312 " fill-rule="nonzero"/></g></g><g clip-path="url(#id8)"><g clip-path="url(#id9)"><path fill="url(#id10)" d="M 17.074219 2.113281 L 17.074219 48.546875 L 38.800781 48.546875 L 38.800781 2.113281 Z M 17.074219 2.113281 " fill-rule="nonzero"/></g></g><g fill="rgb(96.078491%, 84.309387%, 51.368713%)" fill-opacity="1"><g transform="translate(16.333407, 68.231501)"><g><path d="M 0.660156 0 L 5.03125 0 L 5.03125 -1.46875 L 2.441406 -1.46875 L 2.441406 -2.429688 L 4.691406 -2.429688 L 4.691406 -3.875 L 2.441406 -3.875 L 2.441406 -4.78125 L 4.933594 -4.78125 L 4.933594 -6.234375 L 0.660156 -6.234375 Z M 0.660156 0 "/></g></g></g><g fill="rgb(96.078491%, 84.309387%, 51.368713%)" fill-opacity="1"><g transform="translate(23.599784, 68.231501)"><g><path d="M 0.660156 0 L 5.003906 0 L 5.003906 -1.664062 L 2.457031 -1.664062 L 2.457031 -6.234375 L 0.660156 -6.234375 Z M 0.660156 0 "/></g></g></g><g fill="rgb(96.078491%, 84.309387%, 51.368713%)" fill-opacity="1"><g transform="translate(30.661352, 68.231501)"><g><path d="M 0.660156 0 L 3.855469 0 C 5.121094 0 6.003906 -0.710938 6.003906 -1.738281 C 6.003906 -2.394531 5.644531 -2.929688 5.058594 -3.1875 C 5.539062 -3.464844 5.816406 -3.960938 5.816406 -4.558594 C 5.816406 -5.582031 4.996094 -6.234375 3.695312 -6.234375 L 0.660156 -6.234375 Z M 2.421875 -1.335938 L 2.421875 -2.503906 L 3.507812 -2.503906 C 3.9375 -2.503906 4.175781 -2.289062 4.175781 -1.921875 C 4.175781 -1.550781 3.9375 -1.335938 3.507812 -1.335938 Z M 2.421875 -3.785156 L 2.421875 -4.90625 L 3.355469 -4.90625 C 3.777344 -4.90625 4.007812 -4.703125 4.007812 -4.34375 C 4.007812 -3.980469 3.777344 -3.785156 3.355469 -3.785156 Z M 2.421875 -3.785156 "/></g></g></g><g fill="rgb(96.078491%, 84.309387%, 51.368713%)" fill-opacity="1"><g transform="translate(38.755873, 68.231501)"><g><path d="M 0.660156 0 L 2.457031 0 L 2.457031 -1.773438 L 3.132812 -1.773438 L 4.023438 0 L 6.0625 0 L 4.914062 -2.101562 C 5.574219 -2.464844 5.949219 -3.125 5.949219 -4 C 5.949219 -5.378906 5.011719 -6.234375 3.5 -6.234375 L 0.660156 -6.234375 Z M 2.421875 -3.207031 L 2.421875 -4.765625 L 3.257812 -4.765625 C 3.828125 -4.765625 4.140625 -4.488281 4.140625 -3.988281 C 4.140625 -3.492188 3.828125 -3.207031 3.257812 -3.207031 Z M 2.421875 -3.207031 "/></g></g></g><g fill="rgb(96.078491%, 84.309387%, 51.368713%)" fill-opacity="1"><g transform="translate(47.001773, 68.231501)"><g><path d="M 0.660156 0 L 2.457031 0 L 2.457031 -6.234375 L 0.660156 -6.234375 Z M 0.660156 0 "/></g></g></g><g fill="rgb(96.078491%, 84.309387%, 51.368713%)" fill-opacity="1"><g transform="translate(51.95292, 68.231501)"><g><path d="M 0.0429688 0 L 1.949219 0 L 2.289062 -0.882812 L 4.417969 -0.882812 L 4.753906 0 L 6.667969 0 L 4.246094 -6.234375 L 2.464844 -6.234375 Z M 2.664062 -2.199219 L 3.355469 -4.132812 L 4.050781 -2.199219 Z M 2.664062 -2.199219 "/></g></g></g><g fill="rgb(96.078491%, 84.309387%, 51.368713%)" fill-opacity="1"><g transform="translate(15.870842, 72.190604)"><g><path d="M 1.109375 0.015625 C 1.085938 0.00390625 1.035156 0 0.953125 0 L 0.328125 0 C 0.273438 0 0.234375 -0.00390625 0.203125 -0.015625 C 0.171875 -0.0351562 0.15625 -0.0664062 0.15625 -0.109375 C 0.15625 -0.148438 0.160156 -0.175781 0.171875 -0.1875 C 0.210938 -0.175781 0.25 -0.171875 0.28125 -0.171875 C 0.320312 -0.171875 0.351562 -0.175781 0.375 -0.1875 C 0.394531 -0.195312 0.410156 -0.210938 0.421875 -0.234375 C 0.453125 -0.273438 0.46875 -0.34375 0.46875 -0.4375 L 0.46875 -1.96875 C 0.46875 -2.039062 0.445312 -2.085938 0.40625 -2.109375 C 0.382812 -2.117188 0.363281 -2.125 0.34375 -2.125 L 0.265625 -2.140625 C 0.222656 -2.148438 0.195312 -2.164062 0.1875 -2.1875 C 0.175781 -2.207031 0.171875 -2.222656 0.171875 -2.234375 C 0.171875 -2.273438 0.175781 -2.304688 0.1875 -2.328125 C 0.207031 -2.316406 0.257812 -2.3125 0.34375 -2.3125 L 0.953125 -2.3125 C 1.003906 -2.3125 1.046875 -2.300781 1.078125 -2.28125 C 1.109375 -2.269531 1.125 -2.242188 1.125 -2.203125 C 1.125 -2.171875 1.113281 -2.144531 1.09375 -2.125 C 1.0625 -2.132812 1.019531 -2.140625 0.96875 -2.140625 C 0.875 -2.140625 0.828125 -2.0625 0.828125 -1.90625 L 0.828125 -1.234375 L 2.03125 -1.234375 L 2.03125 -1.96875 C 2.03125 -2.039062 2.007812 -2.085938 1.96875 -2.109375 C 1.945312 -2.117188 1.925781 -2.125 1.90625 -2.125 L 1.84375 -2.140625 C 1.789062 -2.148438 1.757812 -2.164062 1.75 -2.1875 C 1.738281 -2.207031 1.734375 -2.222656 1.734375 -2.234375 C 1.734375 -2.273438 1.738281 -2.304688 1.75 -2.328125 C 1.769531 -2.316406 1.820312 -2.3125 1.90625 -2.3125 L 2.515625 -2.3125 C 2.566406 -2.3125 2.609375 -2.300781 2.640625 -2.28125 C 2.671875 -2.269531 2.6875 -2.242188 2.6875 -2.203125 C 2.6875 -2.171875 2.679688 -2.144531 2.671875 -2.125 C 2.628906 -2.132812 2.585938 -2.140625 2.546875 -2.140625 C 2.441406 -2.140625 2.390625 -2.0625 2.390625 -1.90625 L 2.390625 -0.359375 C 2.390625 -0.296875 2.398438 -0.257812 2.421875 -0.25 C 2.441406 -0.21875 2.46875 -0.195312 2.5 -0.1875 C 2.539062 -0.1875 2.570312 -0.179688 2.59375 -0.171875 C 2.625 -0.171875 2.644531 -0.164062 2.65625 -0.15625 C 2.6875 -0.132812 2.703125 -0.109375 2.703125 -0.078125 C 2.703125 -0.0351562 2.695312 -0.00390625 2.6875 0.015625 C 2.664062 0.00390625 2.613281 0 2.53125 0 L 1.90625 0 C 1.851562 0 1.8125 -0.00390625 1.78125 -0.015625 C 1.75 -0.0351562 1.734375 -0.0664062 1.734375 -0.109375 C 1.734375 -0.148438 1.738281 -0.175781 1.75 -0.1875 C 1.789062 -0.175781 1.828125 -0.171875 1.859375 -0.171875 C 1.890625 -0.171875 1.914062 -0.175781 1.9375 -0.1875 C 1.957031 -0.195312 1.972656 -0.210938 1.984375 -0.234375 C 2.015625 -0.265625 2.03125 -0.328125 2.03125 -0.421875 L 2.03125 -1.015625 L 0.828125 -1.015625 L 0.828125 -0.359375 C 0.828125 -0.273438 0.847656 -0.222656 0.890625 -0.203125 C 0.898438 -0.203125 0.914062 -0.195312 0.9375 -0.1875 C 0.96875 -0.1875 0.992188 -0.179688 1.015625 -0.171875 C 1.046875 -0.171875 1.066406 -0.164062 1.078125 -0.15625 C 1.109375 -0.132812 1.125 -0.109375 1.125 -0.078125 C 1.125 -0.0351562 1.117188 -0.00390625 1.109375 0.015625 Z M 1.109375 0.015625 "/></g></g></g><g fill="rgb(96.078491%, 84.309387%, 51.368713%)" fill-opacity="1"><g transform="translate(18.986862, 72.190604)"><g><path d="M 0.46875 -0.265625 C 0.375 -0.359375 0.300781 -0.472656 0.25 -0.609375 C 0.195312 -0.742188 0.171875 -0.890625 0.171875 -1.046875 C 0.171875 -1.203125 0.179688 -1.335938 0.203125 -1.453125 C 0.234375 -1.566406 0.273438 -1.671875 0.328125 -1.765625 C 0.390625 -1.859375 0.457031 -1.941406 0.53125 -2.015625 C 0.601562 -2.085938 0.679688 -2.144531 0.765625 -2.1875 C 0.941406 -2.289062 1.128906 -2.34375 1.328125 -2.34375 C 1.640625 -2.34375 1.894531 -2.242188 2.09375 -2.046875 C 2.300781 -1.835938 2.40625 -1.566406 2.40625 -1.234375 C 2.40625 -0.984375 2.347656 -0.757812 2.234375 -0.5625 C 2.128906 -0.375 1.984375 -0.226562 1.796875 -0.125 C 1.617188 -0.0195312 1.441406 0.03125 1.265625 0.03125 C 1.085938 0.03125 0.929688 0.00390625 0.796875 -0.046875 C 0.671875 -0.0976562 0.5625 -0.171875 0.46875 -0.265625 Z M 0.71875 -1.84375 C 0.664062 -1.757812 0.625 -1.65625 0.59375 -1.53125 C 0.5625 -1.414062 0.546875 -1.289062 0.546875 -1.15625 C 0.546875 -1.019531 0.554688 -0.894531 0.578125 -0.78125 C 0.609375 -0.675781 0.65625 -0.578125 0.71875 -0.484375 C 0.84375 -0.296875 1.023438 -0.203125 1.265625 -0.203125 C 1.515625 -0.203125 1.703125 -0.285156 1.828125 -0.453125 C 1.953125 -0.609375 2.015625 -0.832031 2.015625 -1.125 C 2.015625 -1.570312 1.882812 -1.875 1.625 -2.03125 C 1.53125 -2.082031 1.414062 -2.109375 1.28125 -2.109375 C 1.15625 -2.109375 1.046875 -2.082031 0.953125 -2.03125 C 0.859375 -1.988281 0.78125 -1.925781 0.71875 -1.84375 Z M 0.71875 -1.84375 "/></g></g></g><g fill="rgb(96.078491%, 84.309387%, 51.368713%)" fill-opacity="1"><g transform="translate(21.808787, 72.190604)"><g><path d="M 1.75 0.015625 C 1.726562 0.00390625 1.679688 0 1.609375 0 L 0.75 0 C 0.695312 0 0.648438 -0.00390625 0.609375 -0.015625 C 0.578125 -0.0351562 0.5625 -0.0664062 0.5625 -0.109375 C 0.5625 -0.140625 0.570312 -0.164062 0.59375 -0.1875 C 0.632812 -0.175781 0.671875 -0.171875 0.703125 -0.171875 C 0.734375 -0.171875 0.765625 -0.175781 0.796875 -0.1875 C 0.828125 -0.195312 0.859375 -0.210938 0.890625 -0.234375 C 0.953125 -0.265625 0.984375 -0.328125 0.984375 -0.421875 L 0.984375 -2.09375 L 0.796875 -2.09375 C 0.648438 -2.09375 0.550781 -2.082031 0.5 -2.0625 C 0.457031 -2.050781 0.425781 -2.035156 0.40625 -2.015625 C 0.382812 -1.992188 0.363281 -1.96875 0.34375 -1.9375 C 0.320312 -1.875 0.304688 -1.765625 0.296875 -1.609375 C 0.265625 -1.609375 0.242188 -1.609375 0.234375 -1.609375 C 0.191406 -1.609375 0.164062 -1.617188 0.15625 -1.640625 C 0.144531 -1.660156 0.132812 -1.679688 0.125 -1.703125 C 0.125 -1.722656 0.125 -1.75 0.125 -1.78125 C 0.113281 -1.832031 0.109375 -1.890625 0.109375 -1.953125 C 0.109375 -2.117188 0.125 -2.222656 0.15625 -2.265625 C 0.175781 -2.316406 0.226562 -2.34375 0.3125 -2.34375 C 0.320312 -2.34375 0.34375 -2.335938 0.375 -2.328125 C 0.40625 -2.328125 0.445312 -2.328125 0.5 -2.328125 C 0.65625 -2.316406 0.835938 -2.3125 1.046875 -2.3125 L 1.296875 -2.3125 C 1.585938 -2.3125 1.78125 -2.316406 1.875 -2.328125 C 1.976562 -2.335938 2.039062 -2.34375 2.0625 -2.34375 C 2.09375 -2.34375 2.117188 -2.335938 2.140625 -2.328125 C 2.160156 -2.328125 2.175781 -2.316406 2.1875 -2.296875 C 2.207031 -2.273438 2.21875 -2.25 2.21875 -2.21875 C 2.21875 -2.164062 2.210938 -2.125 2.203125 -2.09375 C 2.203125 -2.0625 2.195312 -2.023438 2.1875 -1.984375 C 2.1875 -1.953125 2.1875 -1.910156 2.1875 -1.859375 C 2.164062 -1.753906 2.144531 -1.679688 2.125 -1.640625 C 2.101562 -1.617188 2.078125 -1.609375 2.046875 -1.609375 C 2.023438 -1.609375 2.003906 -1.609375 1.984375 -1.609375 L 1.984375 -1.703125 C 1.984375 -1.796875 1.976562 -1.867188 1.96875 -1.921875 C 1.957031 -1.972656 1.9375 -2.007812 1.90625 -2.03125 C 1.875 -2.0625 1.828125 -2.078125 1.765625 -2.078125 C 1.703125 -2.085938 1.625 -2.09375 1.53125 -2.09375 L 1.34375 -2.09375 L 1.34375 -0.359375 C 1.34375 -0.285156 1.398438 -0.234375 1.515625 -0.203125 C 1.546875 -0.203125 1.570312 -0.195312 1.59375 -0.1875 C 1.625 -0.1875 1.648438 -0.179688 1.671875 -0.171875 C 1.691406 -0.171875 1.710938 -0.164062 1.734375 -0.15625 C 1.765625 -0.132812 1.78125 -0.109375 1.78125 -0.078125 C 1.78125 -0.0351562 1.769531 -0.00390625 1.75 0.015625 Z M 1.75 0.015625 "/></g></g></g><g fill="rgb(96.078491%, 84.309387%, 51.368713%)" fill-opacity="1"><g transform="translate(24.369797, 72.190604)"><g><path d="M 1.828125 -0.671875 C 1.847656 -0.691406 1.875 -0.703125 1.90625 -0.703125 C 1.957031 -0.703125 1.988281 -0.695312 2 -0.6875 C 2.03125 -0.601562 2.046875 -0.472656 2.046875 -0.296875 C 2.046875 -0.171875 2.035156 -0.0820312 2.015625 -0.03125 C 2.003906 -0.0078125 1.992188 0 1.984375 0 L 0.3125 0 C 0.195312 0 0.140625 -0.0351562 0.140625 -0.109375 C 0.140625 -0.148438 0.144531 -0.175781 0.15625 -0.1875 C 0.1875 -0.1875 0.21875 -0.1875 0.25 -0.1875 C 0.289062 -0.1875 0.320312 -0.1875 0.34375 -0.1875 C 0.363281 -0.1875 0.382812 -0.195312 0.40625 -0.21875 C 0.457031 -0.257812 0.484375 -0.320312 0.484375 -0.40625 L 0.484375 -1.9375 C 0.484375 -2.019531 0.445312 -2.078125 0.375 -2.109375 C 0.351562 -2.109375 0.332031 -2.113281 0.3125 -2.125 C 0.289062 -2.132812 0.269531 -2.140625 0.25 -2.140625 C 0.226562 -2.148438 0.207031 -2.15625 0.1875 -2.15625 C 0.15625 -2.175781 0.140625 -2.203125 0.140625 -2.234375 C 0.140625 -2.273438 0.148438 -2.304688 0.171875 -2.328125 C 0.179688 -2.316406 0.195312 -2.3125 0.21875 -2.3125 L 1.765625 -2.3125 C 1.859375 -2.3125 1.914062 -2.304688 1.9375 -2.296875 C 1.976562 -2.265625 2 -2.195312 2 -2.09375 C 2 -1.988281 1.988281 -1.90625 1.96875 -1.84375 C 1.957031 -1.78125 1.945312 -1.742188 1.9375 -1.734375 C 1.925781 -1.710938 1.910156 -1.703125 1.890625 -1.703125 C 1.847656 -1.703125 1.816406 -1.707031 1.796875 -1.71875 C 1.785156 -1.726562 1.78125 -1.738281 1.78125 -1.75 C 1.757812 -1.894531 1.734375 -1.984375 1.703125 -2.015625 C 1.671875 -2.054688 1.632812 -2.082031 1.59375 -2.09375 C 1.550781 -2.113281 1.492188 -2.125 1.421875 -2.125 L 1.078125 -2.125 C 0.972656 -2.125 0.910156 -2.113281 0.890625 -2.09375 C 0.867188 -2.070312 0.851562 -2.046875 0.84375 -2.015625 C 0.832031 -1.992188 0.828125 -1.960938 0.828125 -1.921875 L 0.828125 -1.28125 L 0.921875 -1.265625 C 1.140625 -1.265625 1.347656 -1.285156 1.546875 -1.328125 C 1.554688 -1.316406 1.566406 -1.296875 1.578125 -1.265625 C 1.585938 -1.234375 1.59375 -1.203125 1.59375 -1.171875 C 1.59375 -1.117188 1.582031 -1.070312 1.5625 -1.03125 C 1.5 -1.019531 1.421875 -1.015625 1.328125 -1.015625 C 1.242188 -1.015625 1.078125 -1.03125 0.828125 -1.0625 L 0.828125 -0.390625 C 0.828125 -0.304688 0.847656 -0.253906 0.890625 -0.234375 C 0.929688 -0.210938 0.992188 -0.203125 1.078125 -0.203125 L 1.3125 -0.203125 C 1.53125 -0.210938 1.671875 -0.242188 1.734375 -0.296875 C 1.773438 -0.328125 1.800781 -0.363281 1.8125 -0.40625 C 1.820312 -0.457031 1.828125 -0.507812 1.828125 -0.5625 C 1.828125 -0.613281 1.828125 -0.648438 1.828125 -0.671875 Z M 1.828125 -0.671875 "/></g></g></g><g fill="rgb(96.078491%, 84.309387%, 51.368713%)" fill-opacity="1"><g transform="translate(26.808644, 72.190604)"><g><path d="M 2.046875 -0.46875 C 2.046875 -0.238281 2.015625 -0.0820312 1.953125 0 L 0.3125 0 C 0.226562 0 0.171875 -0.0195312 0.140625 -0.0625 C 0.140625 -0.0703125 0.140625 -0.0859375 0.140625 -0.109375 C 0.140625 -0.148438 0.144531 -0.175781 0.15625 -0.1875 C 0.1875 -0.1875 0.234375 -0.1875 0.296875 -0.1875 C 0.421875 -0.1875 0.484375 -0.257812 0.484375 -0.40625 L 0.484375 -1.953125 C 0.484375 -2.023438 0.453125 -2.070312 0.390625 -2.09375 C 0.367188 -2.101562 0.347656 -2.113281 0.328125 -2.125 L 0.25 -2.140625 C 0.195312 -2.148438 0.164062 -2.164062 0.15625 -2.1875 C 0.144531 -2.207031 0.140625 -2.222656 0.140625 -2.234375 C 0.140625 -2.273438 0.148438 -2.304688 0.171875 -2.328125 C 0.191406 -2.316406 0.238281 -2.3125 0.3125 -2.3125 L 0.96875 -2.3125 C 1.019531 -2.3125 1.0625 -2.300781 1.09375 -2.28125 C 1.125 -2.269531 1.140625 -2.242188 1.140625 -2.203125 C 1.140625 -2.160156 1.132812 -2.132812 1.125 -2.125 C 1.082031 -2.132812 1.046875 -2.140625 1.015625 -2.140625 C 0.984375 -2.140625 0.957031 -2.132812 0.9375 -2.125 C 0.914062 -2.113281 0.894531 -2.101562 0.875 -2.09375 C 0.851562 -2.050781 0.835938 -1.988281 0.828125 -1.90625 L 0.828125 -0.375 C 0.835938 -0.300781 0.859375 -0.253906 0.890625 -0.234375 C 0.929688 -0.210938 0.992188 -0.203125 1.078125 -0.203125 L 1.328125 -0.203125 C 1.546875 -0.203125 1.6875 -0.25 1.75 -0.34375 C 1.78125 -0.394531 1.800781 -0.457031 1.8125 -0.53125 C 1.832031 -0.601562 1.84375 -0.6875 1.84375 -0.78125 C 1.863281 -0.789062 1.890625 -0.796875 1.921875 -0.796875 C 1.972656 -0.796875 2.003906 -0.789062 2.015625 -0.78125 C 2.035156 -0.695312 2.046875 -0.59375 2.046875 -0.46875 Z M 2.046875 -0.46875 "/></g></g></g><g fill="rgb(96.078491%, 84.309387%, 51.368713%)" fill-opacity="1"><g transform="translate(29.233918, 72.190604)"><g/></g></g><g fill="rgb(96.078491%, 84.309387%, 51.368713%)" fill-opacity="1"><g transform="translate(30.582351, 72.190604)"><g><path d="M 1.765625 -0.25 C 1.515625 -0.0625 1.238281 0.03125 0.9375 0.03125 C 0.738281 0.03125 0.566406 -0.0195312 0.421875 -0.125 C 0.253906 -0.238281 0.171875 -0.398438 0.171875 -0.609375 C 0.171875 -0.828125 0.265625 -1.007812 0.453125 -1.15625 C 0.503906 -1.195312 0.554688 -1.234375 0.609375 -1.265625 C 0.484375 -1.441406 0.421875 -1.597656 0.421875 -1.734375 C 0.421875 -1.910156 0.488281 -2.054688 0.625 -2.171875 C 0.75 -2.273438 0.894531 -2.328125 1.0625 -2.328125 C 1.21875 -2.328125 1.34375 -2.296875 1.4375 -2.234375 C 1.550781 -2.171875 1.609375 -2.078125 1.609375 -1.953125 C 1.609375 -1.828125 1.546875 -1.738281 1.421875 -1.6875 C 1.398438 -1.675781 1.378906 -1.671875 1.359375 -1.671875 C 1.335938 -1.671875 1.316406 -1.679688 1.296875 -1.703125 C 1.304688 -1.734375 1.3125 -1.769531 1.3125 -1.8125 L 1.3125 -1.84375 C 1.300781 -1.914062 1.269531 -1.972656 1.21875 -2.015625 C 1.164062 -2.054688 1.09375 -2.078125 1 -2.078125 C 0.875 -2.078125 0.789062 -2.035156 0.75 -1.953125 C 0.726562 -1.921875 0.71875 -1.878906 0.71875 -1.828125 C 0.71875 -1.773438 0.734375 -1.71875 0.765625 -1.65625 C 0.796875 -1.59375 0.835938 -1.523438 0.890625 -1.453125 C 0.941406 -1.390625 1 -1.320312 1.0625 -1.25 C 1.132812 -1.1875 1.207031 -1.117188 1.28125 -1.046875 C 1.488281 -0.878906 1.648438 -0.75 1.765625 -0.65625 C 1.890625 -0.851562 1.96875 -1.085938 2 -1.359375 C 2.03125 -1.367188 2.0625 -1.375 2.09375 -1.375 C 2.25 -1.375 2.328125 -1.300781 2.328125 -1.15625 C 2.328125 -1.019531 2.265625 -0.859375 2.140625 -0.671875 C 2.109375 -0.609375 2.0625 -0.546875 2 -0.484375 L 2.140625 -0.390625 C 2.242188 -0.304688 2.332031 -0.265625 2.40625 -0.265625 C 2.445312 -0.265625 2.476562 -0.273438 2.5 -0.296875 C 2.53125 -0.316406 2.550781 -0.328125 2.5625 -0.328125 C 2.570312 -0.328125 2.578125 -0.328125 2.578125 -0.328125 C 2.585938 -0.328125 2.597656 -0.320312 2.609375 -0.3125 C 2.628906 -0.300781 2.640625 -0.285156 2.640625 -0.265625 C 2.640625 -0.242188 2.628906 -0.210938 2.609375 -0.171875 C 2.585938 -0.140625 2.5625 -0.109375 2.53125 -0.078125 C 2.457031 -0.00390625 2.378906 0.03125 2.296875 0.03125 C 2.210938 0.03125 2.117188 -0.00390625 2.015625 -0.078125 Z M 0.75 -1.109375 C 0.601562 -0.992188 0.53125 -0.863281 0.53125 -0.71875 C 0.53125 -0.5625 0.578125 -0.4375 0.671875 -0.34375 C 0.765625 -0.257812 0.867188 -0.21875 0.984375 -0.21875 C 1.210938 -0.21875 1.398438 -0.28125 1.546875 -0.40625 C 1.265625 -0.625 1.070312 -0.78125 0.96875 -0.875 C 0.875 -0.96875 0.800781 -1.046875 0.75 -1.109375 Z M 0.75 -1.109375 "/></g></g></g><g fill="rgb(96.078491%, 84.309387%, 51.368713%)" fill-opacity="1"><g transform="translate(33.426898, 72.190604)"><g/></g></g><g fill="rgb(96.078491%, 84.309387%, 51.368713%)" fill-opacity="1"><g transform="translate(34.775331, 72.190604)"><g><path d="M 1.59375 -0.171875 C 1.644531 -0.171875 1.679688 -0.171875 1.703125 -0.171875 C 1.722656 -0.171875 1.742188 -0.171875 1.765625 -0.171875 C 1.785156 -0.179688 1.800781 -0.191406 1.8125 -0.203125 C 1.851562 -0.222656 1.875 -0.253906 1.875 -0.296875 C 1.875 -0.335938 1.859375 -0.382812 1.828125 -0.4375 L 1.6875 -0.78125 L 0.734375 -0.78125 L 0.5625 -0.359375 C 0.550781 -0.316406 0.546875 -0.285156 0.546875 -0.265625 C 0.546875 -0.253906 0.546875 -0.242188 0.546875 -0.234375 C 0.554688 -0.222656 0.566406 -0.210938 0.578125 -0.203125 C 0.585938 -0.203125 0.601562 -0.195312 0.625 -0.1875 L 0.6875 -0.171875 C 0.75 -0.160156 0.789062 -0.148438 0.8125 -0.140625 C 0.84375 -0.128906 0.859375 -0.101562 0.859375 -0.0625 C 0.859375 -0.03125 0.851562 -0.0078125 0.84375 0 C 0.820312 0 0.804688 0 0.796875 0 L 0.171875 0 C 0.0351562 0 -0.03125 -0.0351562 -0.03125 -0.109375 C -0.03125 -0.140625 -0.0195312 -0.164062 0 -0.1875 C 0.03125 -0.175781 0.0546875 -0.171875 0.078125 -0.171875 C 0.109375 -0.171875 0.132812 -0.175781 0.15625 -0.1875 C 0.175781 -0.195312 0.191406 -0.210938 0.203125 -0.234375 C 0.234375 -0.265625 0.265625 -0.332031 0.296875 -0.4375 L 1.046875 -2.234375 C 1.066406 -2.285156 1.128906 -2.320312 1.234375 -2.34375 C 1.253906 -2.34375 1.28125 -2.34375 1.3125 -2.34375 C 1.375 -2.34375 1.410156 -2.328125 1.421875 -2.296875 L 1.578125 -1.921875 C 1.867188 -1.234375 2.035156 -0.832031 2.078125 -0.71875 L 2.21875 -0.359375 C 2.25 -0.273438 2.269531 -0.222656 2.28125 -0.203125 C 2.300781 -0.191406 2.320312 -0.179688 2.34375 -0.171875 C 2.363281 -0.171875 2.382812 -0.164062 2.40625 -0.15625 C 2.4375 -0.15625 2.457031 -0.148438 2.46875 -0.140625 C 2.507812 -0.117188 2.53125 -0.09375 2.53125 -0.0625 C 2.53125 -0.03125 2.519531 -0.0078125 2.5 0 C 2.488281 0 2.472656 0 2.453125 0 L 1.734375 0 C 1.679688 0 1.640625 -0.00390625 1.609375 -0.015625 C 1.585938 -0.0351562 1.578125 -0.0546875 1.578125 -0.078125 C 1.578125 -0.117188 1.582031 -0.148438 1.59375 -0.171875 Z M 1.609375 -1 L 1.203125 -1.984375 L 0.8125 -1 Z M 1.609375 -1 "/></g></g></g><g fill="rgb(96.078491%, 84.309387%, 51.368713%)" fill-opacity="1"><g transform="translate(37.538436, 72.190604)"><g><path d="M 1.265625 0.015625 C 1.242188 0.00390625 1.191406 0 1.109375 0 L 0.328125 0 C 0.273438 0 0.234375 -0.00390625 0.203125 -0.015625 C 0.171875 -0.0351562 0.15625 -0.0664062 0.15625 -0.109375 C 0.15625 -0.148438 0.164062 -0.175781 0.1875 -0.1875 C 0.226562 -0.175781 0.265625 -0.171875 0.296875 -0.171875 C 0.328125 -0.171875 0.351562 -0.175781 0.375 -0.1875 C 0.394531 -0.195312 0.414062 -0.210938 0.4375 -0.234375 C 0.46875 -0.273438 0.484375 -0.34375 0.484375 -0.4375 L 0.484375 -1.953125 C 0.484375 -2.046875 0.425781 -2.101562 0.3125 -2.125 C 0.238281 -2.132812 0.191406 -2.148438 0.171875 -2.171875 C 0.148438 -2.191406 0.140625 -2.210938 0.140625 -2.234375 C 0.140625 -2.273438 0.148438 -2.304688 0.171875 -2.328125 C 0.179688 -2.316406 0.195312 -2.3125 0.21875 -2.3125 L 0.59375 -2.3125 L 1.125 -2.328125 C 1.601562 -2.328125 1.90625 -2.203125 2.03125 -1.953125 C 2.070312 -1.859375 2.09375 -1.765625 2.09375 -1.671875 C 2.09375 -1.578125 2.082031 -1.492188 2.0625 -1.421875 C 2.050781 -1.359375 2.03125 -1.296875 2 -1.234375 C 1.96875 -1.171875 1.925781 -1.113281 1.875 -1.0625 C 1.820312 -1.007812 1.757812 -0.960938 1.6875 -0.921875 C 1.507812 -0.828125 1.289062 -0.78125 1.03125 -0.78125 L 0.96875 -0.78125 C 0.945312 -0.78125 0.9375 -0.800781 0.9375 -0.84375 C 0.9375 -0.914062 0.957031 -0.957031 1 -0.96875 C 1.375 -0.96875 1.601562 -1.082031 1.6875 -1.3125 C 1.707031 -1.382812 1.71875 -1.460938 1.71875 -1.546875 C 1.71875 -1.628906 1.707031 -1.707031 1.6875 -1.78125 C 1.675781 -1.851562 1.644531 -1.914062 1.59375 -1.96875 C 1.488281 -2.082031 1.316406 -2.140625 1.078125 -2.140625 C 0.972656 -2.140625 0.90625 -2.117188 0.875 -2.078125 C 0.84375 -2.046875 0.828125 -1.972656 0.828125 -1.859375 L 0.828125 -0.34375 C 0.835938 -0.269531 0.898438 -0.222656 1.015625 -0.203125 C 1.128906 -0.191406 1.195312 -0.175781 1.21875 -0.15625 C 1.25 -0.144531 1.265625 -0.132812 1.265625 -0.125 C 1.273438 -0.113281 1.28125 -0.0976562 1.28125 -0.078125 C 1.28125 -0.0351562 1.273438 -0.00390625 1.265625 0.015625 Z M 1.265625 0.015625 "/></g></g></g><g fill="rgb(96.078491%, 84.309387%, 51.368713%)" fill-opacity="1"><g transform="translate(39.96371, 72.190604)"><g><path d="M 1.59375 -0.171875 C 1.644531 -0.171875 1.679688 -0.171875 1.703125 -0.171875 C 1.722656 -0.171875 1.742188 -0.171875 1.765625 -0.171875 C 1.785156 -0.179688 1.800781 -0.191406 1.8125 -0.203125 C 1.851562 -0.222656 1.875 -0.253906 1.875 -0.296875 C 1.875 -0.335938 1.859375 -0.382812 1.828125 -0.4375 L 1.6875 -0.78125 L 0.734375 -0.78125 L 0.5625 -0.359375 C 0.550781 -0.316406 0.546875 -0.285156 0.546875 -0.265625 C 0.546875 -0.253906 0.546875 -0.242188 0.546875 -0.234375 C 0.554688 -0.222656 0.566406 -0.210938 0.578125 -0.203125 C 0.585938 -0.203125 0.601562 -0.195312 0.625 -0.1875 L 0.6875 -0.171875 C 0.75 -0.160156 0.789062 -0.148438 0.8125 -0.140625 C 0.84375 -0.128906 0.859375 -0.101562 0.859375 -0.0625 C 0.859375 -0.03125 0.851562 -0.0078125 0.84375 0 C 0.820312 0 0.804688 0 0.796875 0 L 0.171875 0 C 0.0351562 0 -0.03125 -0.0351562 -0.03125 -0.109375 C -0.03125 -0.140625 -0.0195312 -0.164062 0 -0.1875 C 0.03125 -0.175781 0.0546875 -0.171875 0.078125 -0.171875 C 0.109375 -0.171875 0.132812 -0.175781 0.15625 -0.1875 C 0.175781 -0.195312 0.191406 -0.210938 0.203125 -0.234375 C 0.234375 -0.265625 0.265625 -0.332031 0.296875 -0.4375 L 1.046875 -2.234375 C 1.066406 -2.285156 1.128906 -2.320312 1.234375 -2.34375 C 1.253906 -2.34375 1.28125 -2.34375 1.3125 -2.34375 C 1.375 -2.34375 1.410156 -2.328125 1.421875 -2.296875 L 1.578125 -1.921875 C 1.867188 -1.234375 2.035156 -0.832031 2.078125 -0.71875 L 2.21875 -0.359375 C 2.25 -0.273438 2.269531 -0.222656 2.28125 -0.203125 C 2.300781 -0.191406 2.320312 -0.179688 2.34375 -0.171875 C 2.363281 -0.171875 2.382812 -0.164062 2.40625 -0.15625 C 2.4375 -0.15625 2.457031 -0.148438 2.46875 -0.140625 C 2.507812 -0.117188 2.53125 -0.09375 2.53125 -0.0625 C 2.53125 -0.03125 2.519531 -0.0078125 2.5 0 C 2.488281 0 2.472656 0 2.453125 0 L 1.734375 0 C 1.679688 0 1.640625 -0.00390625 1.609375 -0.015625 C 1.585938 -0.0351562 1.578125 -0.0546875 1.578125 -0.078125 C 1.578125 -0.117188 1.582031 -0.148438 1.59375 -0.171875 Z M 1.609375 -1 L 1.203125 -1.984375 L 0.8125 -1 Z M 1.609375 -1 "/></g></g></g><g fill="rgb(96.078491%, 84.309387%, 51.368713%)" fill-opacity="1"><g transform="translate(42.726817, 72.190604)"><g><path d="M 1.09375 0.015625 C 1.070312 0.00390625 1.023438 0 0.953125 0 L 0.328125 0 C 0.273438 0 0.234375 -0.00390625 0.203125 -0.015625 C 0.171875 -0.0351562 0.15625 -0.0664062 0.15625 -0.109375 C 0.15625 -0.148438 0.164062 -0.175781 0.1875 -0.1875 C 0.226562 -0.175781 0.265625 -0.171875 0.296875 -0.171875 C 0.328125 -0.171875 0.351562 -0.175781 0.375 -0.1875 C 0.394531 -0.195312 0.414062 -0.210938 0.4375 -0.234375 C 0.46875 -0.273438 0.484375 -0.34375 0.484375 -0.4375 L 0.484375 -1.96875 C 0.472656 -2.039062 0.445312 -2.085938 0.40625 -2.109375 C 0.394531 -2.117188 0.375 -2.125 0.34375 -2.125 C 0.320312 -2.132812 0.300781 -2.140625 0.28125 -2.140625 C 0.257812 -2.148438 0.242188 -2.15625 0.234375 -2.15625 C 0.203125 -2.175781 0.1875 -2.203125 0.1875 -2.234375 C 0.1875 -2.273438 0.195312 -2.304688 0.21875 -2.328125 C 0.238281 -2.316406 0.285156 -2.3125 0.359375 -2.3125 L 0.5625 -2.3125 L 1.09375 -2.328125 L 1.15625 -2.328125 C 1.46875 -2.328125 1.695312 -2.269531 1.84375 -2.15625 C 2 -2.050781 2.078125 -1.898438 2.078125 -1.703125 C 2.078125 -1.546875 2.03125 -1.40625 1.9375 -1.28125 C 1.820312 -1.144531 1.671875 -1.050781 1.484375 -1 C 1.535156 -0.96875 1.59375 -0.898438 1.65625 -0.796875 L 1.828125 -0.5625 C 1.972656 -0.34375 2.09375 -0.234375 2.1875 -0.234375 C 2.226562 -0.234375 2.257812 -0.238281 2.28125 -0.25 L 2.3125 -0.265625 C 2.320312 -0.265625 2.332031 -0.265625 2.34375 -0.265625 C 2.351562 -0.265625 2.363281 -0.253906 2.375 -0.234375 C 2.382812 -0.222656 2.390625 -0.207031 2.390625 -0.1875 C 2.390625 -0.175781 2.378906 -0.15625 2.359375 -0.125 C 2.347656 -0.09375 2.328125 -0.0664062 2.296875 -0.046875 C 2.222656 0.00390625 2.144531 0.03125 2.0625 0.03125 C 1.976562 0.03125 1.910156 0.015625 1.859375 -0.015625 C 1.804688 -0.046875 1.753906 -0.0820312 1.703125 -0.125 C 1.660156 -0.164062 1.617188 -0.21875 1.578125 -0.28125 C 1.546875 -0.34375 1.515625 -0.398438 1.484375 -0.453125 L 1.390625 -0.640625 C 1.328125 -0.773438 1.273438 -0.859375 1.234375 -0.890625 C 1.203125 -0.929688 1.171875 -0.953125 1.140625 -0.953125 L 0.984375 -0.953125 C 0.960938 -0.953125 0.953125 -0.96875 0.953125 -1 C 0.953125 -1.050781 0.96875 -1.09375 1 -1.125 C 1.019531 -1.132812 1.0625 -1.140625 1.125 -1.140625 C 1.1875 -1.140625 1.257812 -1.148438 1.34375 -1.171875 C 1.425781 -1.203125 1.492188 -1.238281 1.546875 -1.28125 C 1.648438 -1.375 1.703125 -1.503906 1.703125 -1.671875 C 1.703125 -1.804688 1.65625 -1.914062 1.5625 -2 C 1.457031 -2.09375 1.316406 -2.140625 1.140625 -2.140625 C 1.015625 -2.140625 0.929688 -2.125 0.890625 -2.09375 C 0.859375 -2.0625 0.835938 -2 0.828125 -1.90625 L 0.828125 -0.359375 C 0.828125 -0.273438 0.851562 -0.222656 0.90625 -0.203125 C 0.914062 -0.203125 0.929688 -0.195312 0.953125 -0.1875 C 0.972656 -0.1875 0.992188 -0.179688 1.015625 -0.171875 C 1.046875 -0.171875 1.066406 -0.164062 1.078125 -0.15625 C 1.109375 -0.132812 1.125 -0.113281 1.125 -0.09375 C 1.125 -0.0390625 1.113281 -0.00390625 1.09375 0.015625 Z M 1.09375 0.015625 "/></g></g></g><g fill="rgb(96.078491%, 84.309387%, 51.368713%)" fill-opacity="1"><g transform="translate(45.379827, 72.190604)"><g><path d="M 1.75 0.015625 C 1.726562 0.00390625 1.679688 0 1.609375 0 L 0.75 0 C 0.695312 0 0.648438 -0.00390625 0.609375 -0.015625 C 0.578125 -0.0351562 0.5625 -0.0664062 0.5625 -0.109375 C 0.5625 -0.140625 0.570312 -0.164062 0.59375 -0.1875 C 0.632812 -0.175781 0.671875 -0.171875 0.703125 -0.171875 C 0.734375 -0.171875 0.765625 -0.175781 0.796875 -0.1875 C 0.828125 -0.195312 0.859375 -0.210938 0.890625 -0.234375 C 0.953125 -0.265625 0.984375 -0.328125 0.984375 -0.421875 L 0.984375 -2.09375 L 0.796875 -2.09375 C 0.648438 -2.09375 0.550781 -2.082031 0.5 -2.0625 C 0.457031 -2.050781 0.425781 -2.035156 0.40625 -2.015625 C 0.382812 -1.992188 0.363281 -1.96875 0.34375 -1.9375 C 0.320312 -1.875 0.304688 -1.765625 0.296875 -1.609375 C 0.265625 -1.609375 0.242188 -1.609375 0.234375 -1.609375 C 0.191406 -1.609375 0.164062 -1.617188 0.15625 -1.640625 C 0.144531 -1.660156 0.132812 -1.679688 0.125 -1.703125 C 0.125 -1.722656 0.125 -1.75 0.125 -1.78125 C 0.113281 -1.832031 0.109375 -1.890625 0.109375 -1.953125 C 0.109375 -2.117188 0.125 -2.222656 0.15625 -2.265625 C 0.175781 -2.316406 0.226562 -2.34375 0.3125 -2.34375 C 0.320312 -2.34375 0.34375 -2.335938 0.375 -2.328125 C 0.40625 -2.328125 0.445312 -2.328125 0.5 -2.328125 C 0.65625 -2.316406 0.835938 -2.3125 1.046875 -2.3125 L 1.296875 -2.3125 C 1.585938 -2.3125 1.78125 -2.316406 1.875 -2.328125 C 1.976562 -2.335938 2.039062 -2.34375 2.0625 -2.34375 C 2.09375 -2.34375 2.117188 -2.335938 2.140625 -2.328125 C 2.160156 -2.328125 2.175781 -2.316406 2.1875 -2.296875 C 2.207031 -2.273438 2.21875 -2.25 2.21875 -2.21875 C 2.21875 -2.164062 2.210938 -2.125 2.203125 -2.09375 C 2.203125 -2.0625 2.195312 -2.023438 2.1875 -1.984375 C 2.1875 -1.953125 2.1875 -1.910156 2.1875 -1.859375 C 2.164062 -1.753906 2.144531 -1.679688 2.125 -1.640625 C 2.101562 -1.617188 2.078125 -1.609375 2.046875 -1.609375 C 2.023438 -1.609375 2.003906 -1.609375 1.984375 -1.609375 L 1.984375 -1.703125 C 1.984375 -1.796875 1.976562 -1.867188 1.96875 -1.921875 C 1.957031 -1.972656 1.9375 -2.007812 1.90625 -2.03125 C 1.875 -2.0625 1.828125 -2.078125 1.765625 -2.078125 C 1.703125 -2.085938 1.625 -2.09375 1.53125 -2.09375 L 1.34375 -2.09375 L 1.34375 -0.359375 C 1.34375 -0.285156 1.398438 -0.234375 1.515625 -0.203125 C 1.546875 -0.203125 1.570312 -0.195312 1.59375 -0.1875 C 1.625 -0.1875 1.648438 -0.179688 1.671875 -0.171875 C 1.691406 -0.171875 1.710938 -0.164062 1.734375 -0.15625 C 1.765625 -0.132812 1.78125 -0.109375 1.78125 -0.078125 C 1.78125 -0.0351562 1.769531 -0.00390625 1.75 0.015625 Z M 1.75 0.015625 "/></g></g></g><g fill="rgb(96.078491%, 84.309387%, 51.368713%)" fill-opacity="1"><g transform="translate(47.940838, 72.190604)"><g><path d="M 0.296875 0 C 0.160156 0 0.09375 -0.0351562 0.09375 -0.109375 C 0.09375 -0.140625 0.0976562 -0.164062 0.109375 -0.1875 C 0.140625 -0.1875 0.171875 -0.1875 0.203125 -0.1875 C 0.234375 -0.1875 0.257812 -0.1875 0.28125 -0.1875 C 0.300781 -0.1875 0.320312 -0.191406 0.34375 -0.203125 C 0.375 -0.242188 0.394531 -0.320312 0.40625 -0.4375 L 0.5625 -2.046875 C 0.5625 -2.066406 0.550781 -2.082031 0.53125 -2.09375 C 0.519531 -2.113281 0.5 -2.125 0.46875 -2.125 C 0.4375 -2.132812 0.410156 -2.140625 0.390625 -2.140625 C 0.367188 -2.148438 0.351562 -2.15625 0.34375 -2.15625 C 0.3125 -2.175781 0.296875 -2.203125 0.296875 -2.234375 C 0.296875 -2.273438 0.300781 -2.304688 0.3125 -2.328125 C 0.332031 -2.316406 0.351562 -2.3125 0.375 -2.3125 L 0.8125 -2.3125 C 0.96875 -2.3125 1.0625 -2.273438 1.09375 -2.203125 L 1.65625 -0.890625 L 2.234375 -2.21875 C 2.253906 -2.257812 2.28125 -2.285156 2.3125 -2.296875 C 2.351562 -2.304688 2.40625 -2.3125 2.46875 -2.3125 L 2.765625 -2.3125 C 2.898438 -2.3125 2.96875 -2.273438 2.96875 -2.203125 C 2.96875 -2.171875 2.957031 -2.144531 2.9375 -2.125 C 2.894531 -2.132812 2.859375 -2.140625 2.828125 -2.140625 C 2.804688 -2.140625 2.785156 -2.132812 2.765625 -2.125 C 2.753906 -2.125 2.738281 -2.117188 2.71875 -2.109375 C 2.695312 -2.085938 2.691406 -2.046875 2.703125 -1.984375 L 2.859375 -0.328125 C 2.867188 -0.265625 2.90625 -0.222656 2.96875 -0.203125 C 2.988281 -0.191406 3.007812 -0.1875 3.03125 -0.1875 L 3.09375 -0.15625 C 3.125 -0.144531 3.144531 -0.128906 3.15625 -0.109375 C 3.164062 -0.0976562 3.171875 -0.0820312 3.171875 -0.0625 C 3.171875 -0.03125 3.164062 -0.0078125 3.15625 0 C 3.125 0 3.097656 0 3.078125 0 L 2.390625 0 C 2.265625 0 2.203125 -0.0351562 2.203125 -0.109375 C 2.203125 -0.117188 2.207031 -0.132812 2.21875 -0.15625 C 2.226562 -0.175781 2.234375 -0.1875 2.234375 -0.1875 C 2.265625 -0.1875 2.289062 -0.1875 2.3125 -0.1875 C 2.34375 -0.1875 2.367188 -0.1875 2.390625 -0.1875 C 2.421875 -0.1875 2.445312 -0.195312 2.46875 -0.21875 C 2.507812 -0.25 2.523438 -0.3125 2.515625 -0.40625 L 2.421875 -1.703125 L 2.40625 -1.953125 L 1.71875 -0.421875 C 1.695312 -0.410156 1.671875 -0.40625 1.640625 -0.40625 C 1.617188 -0.40625 1.59375 -0.414062 1.5625 -0.4375 C 1.539062 -0.457031 1.515625 -0.484375 1.484375 -0.515625 C 1.453125 -0.554688 1.421875 -0.613281 1.390625 -0.6875 L 0.828125 -2 L 0.703125 -0.359375 C 0.691406 -0.304688 0.695312 -0.269531 0.71875 -0.25 C 0.75 -0.21875 0.785156 -0.195312 0.828125 -0.1875 C 0.867188 -0.175781 0.898438 -0.164062 0.921875 -0.15625 C 0.941406 -0.15625 0.960938 -0.148438 0.984375 -0.140625 C 1.015625 -0.128906 1.03125 -0.0976562 1.03125 -0.046875 C 1.03125 -0.0234375 1.023438 -0.0078125 1.015625 0 C 0.992188 0 0.972656 0 0.953125 0 Z M 0.296875 0 "/></g></g></g><g fill="rgb(96.078491%, 84.309387%, 51.368713%)" fill-opacity="1"><g transform="translate(51.42033, 72.190604)"><g><path d="M 1.828125 -0.671875 C 1.847656 -0.691406 1.875 -0.703125 1.90625 -0.703125 C 1.957031 -0.703125 1.988281 -0.695312 2 -0.6875 C 2.03125 -0.601562 2.046875 -0.472656 2.046875 -0.296875 C 2.046875 -0.171875 2.035156 -0.0820312 2.015625 -0.03125 C 2.003906 -0.0078125 1.992188 0 1.984375 0 L 0.3125 0 C 0.195312 0 0.140625 -0.0351562 0.140625 -0.109375 C 0.140625 -0.148438 0.144531 -0.175781 0.15625 -0.1875 C 0.1875 -0.1875 0.21875 -0.1875 0.25 -0.1875 C 0.289062 -0.1875 0.320312 -0.1875 0.34375 -0.1875 C 0.363281 -0.1875 0.382812 -0.195312 0.40625 -0.21875 C 0.457031 -0.257812 0.484375 -0.320312 0.484375 -0.40625 L 0.484375 -1.9375 C 0.484375 -2.019531 0.445312 -2.078125 0.375 -2.109375 C 0.351562 -2.109375 0.332031 -2.113281 0.3125 -2.125 C 0.289062 -2.132812 0.269531 -2.140625 0.25 -2.140625 C 0.226562 -2.148438 0.207031 -2.15625 0.1875 -2.15625 C 0.15625 -2.175781 0.140625 -2.203125 0.140625 -2.234375 C 0.140625 -2.273438 0.148438 -2.304688 0.171875 -2.328125 C 0.179688 -2.316406 0.195312 -2.3125 0.21875 -2.3125 L 1.765625 -2.3125 C 1.859375 -2.3125 1.914062 -2.304688 1.9375 -2.296875 C 1.976562 -2.265625 2 -2.195312 2 -2.09375 C 2 -1.988281 1.988281 -1.90625 1.96875 -1.84375 C 1.957031 -1.78125 1.945312 -1.742188 1.9375 -1.734375 C 1.925781 -1.710938 1.910156 -1.703125 1.890625 -1.703125 C 1.847656 -1.703125 1.816406 -1.707031 1.796875 -1.71875 C 1.785156 -1.726562 1.78125 -1.738281 1.78125 -1.75 C 1.757812 -1.894531 1.734375 -1.984375 1.703125 -2.015625 C 1.671875 -2.054688 1.632812 -2.082031 1.59375 -2.09375 C 1.550781 -2.113281 1.492188 -2.125 1.421875 -2.125 L 1.078125 -2.125 C 0.972656 -2.125 0.910156 -2.113281 0.890625 -2.09375 C 0.867188 -2.070312 0.851562 -2.046875 0.84375 -2.015625 C 0.832031 -1.992188 0.828125 -1.960938 0.828125 -1.921875 L 0.828125 -1.28125 L 0.921875 -1.265625 C 1.140625 -1.265625 1.347656 -1.285156 1.546875 -1.328125 C 1.554688 -1.316406 1.566406 -1.296875 1.578125 -1.265625 C 1.585938 -1.234375 1.59375 -1.203125 1.59375 -1.171875 C 1.59375 -1.117188 1.582031 -1.070312 1.5625 -1.03125 C 1.5 -1.019531 1.421875 -1.015625 1.328125 -1.015625 C 1.242188 -1.015625 1.078125 -1.03125 0.828125 -1.0625 L 0.828125 -0.390625 C 0.828125 -0.304688 0.847656 -0.253906 0.890625 -0.234375 C 0.929688 -0.210938 0.992188 -0.203125 1.078125 -0.203125 L 1.3125 -0.203125 C 1.53125 -0.210938 1.671875 -0.242188 1.734375 -0.296875 C 1.773438 -0.328125 1.800781 -0.363281 1.8125 -0.40625 C 1.820312 -0.457031 1.828125 -0.507812 1.828125 -0.5625 C 1.828125 -0.613281 1.828125 -0.648438 1.828125 -0.671875 Z M 1.828125 -0.671875 "/></g></g></g><g fill="rgb(96.078491%, 84.309387%, 51.368713%)" fill-opacity="1"><g transform="translate(53.859178, 72.190604)"><g><path d="M 0.328125 0 C 0.191406 0 0.125 -0.0351562 0.125 -0.109375 C 0.125 -0.148438 0.128906 -0.175781 0.140625 -0.1875 C 0.171875 -0.175781 0.203125 -0.171875 0.234375 -0.171875 C 0.265625 -0.171875 0.289062 -0.175781 0.3125 -0.1875 C 0.34375 -0.195312 0.367188 -0.207031 0.390625 -0.21875 C 0.421875 -0.25 0.4375 -0.296875 0.4375 -0.359375 L 0.4375 -2 C 0.4375 -2.039062 0.425781 -2.070312 0.40625 -2.09375 C 0.394531 -2.113281 0.375 -2.125 0.34375 -2.125 C 0.3125 -2.132812 0.285156 -2.140625 0.265625 -2.140625 C 0.242188 -2.148438 0.226562 -2.160156 0.21875 -2.171875 C 0.175781 -2.179688 0.15625 -2.195312 0.15625 -2.21875 C 0.15625 -2.269531 0.164062 -2.304688 0.1875 -2.328125 C 0.207031 -2.316406 0.238281 -2.3125 0.28125 -2.3125 L 0.578125 -2.3125 C 0.660156 -2.3125 0.738281 -2.269531 0.8125 -2.1875 L 2.09375 -0.578125 L 2.09375 -1.984375 C 2.082031 -2.023438 2.066406 -2.054688 2.046875 -2.078125 C 2.035156 -2.109375 2.007812 -2.128906 1.96875 -2.140625 C 1.9375 -2.148438 1.90625 -2.15625 1.875 -2.15625 C 1.851562 -2.15625 1.832031 -2.160156 1.8125 -2.171875 C 1.757812 -2.191406 1.734375 -2.21875 1.734375 -2.25 C 1.734375 -2.28125 1.742188 -2.304688 1.765625 -2.328125 C 1.785156 -2.316406 1.816406 -2.3125 1.859375 -2.3125 L 2.46875 -2.3125 C 2.601562 -2.3125 2.671875 -2.285156 2.671875 -2.234375 C 2.671875 -2.179688 2.660156 -2.144531 2.640625 -2.125 C 2.617188 -2.132812 2.59375 -2.140625 2.5625 -2.140625 C 2.53125 -2.140625 2.5 -2.140625 2.46875 -2.140625 C 2.445312 -2.140625 2.425781 -2.132812 2.40625 -2.125 C 2.363281 -2.101562 2.34375 -2.054688 2.34375 -1.984375 L 2.34375 -0.046875 C 2.34375 -0.015625 2.332031 0 2.3125 0 C 2.300781 0.0078125 2.273438 0.015625 2.234375 0.015625 C 2.160156 0.015625 2.082031 -0.0351562 2 -0.140625 L 0.703125 -1.78125 L 0.703125 -0.328125 C 0.703125 -0.242188 0.738281 -0.191406 0.8125 -0.171875 C 0.84375 -0.171875 0.875 -0.164062 0.90625 -0.15625 C 0.9375 -0.15625 0.960938 -0.148438 0.984375 -0.140625 C 1.035156 -0.128906 1.0625 -0.109375 1.0625 -0.078125 C 1.0625 -0.0351562 1.050781 -0.0078125 1.03125 0 C 1.007812 0 0.976562 0 0.9375 0 Z M 0.328125 0 "/></g></g></g><g fill="rgb(96.078491%, 84.309387%, 51.368713%)" fill-opacity="1"><g transform="translate(56.828906, 72.190604)"><g><path d="M 1.75 0.015625 C 1.726562 0.00390625 1.679688 0 1.609375 0 L 0.75 0 C 0.695312 0 0.648438 -0.00390625 0.609375 -0.015625 C 0.578125 -0.0351562 0.5625 -0.0664062 0.5625 -0.109375 C 0.5625 -0.140625 0.570312 -0.164062 0.59375 -0.1875 C 0.632812 -0.175781 0.671875 -0.171875 0.703125 -0.171875 C 0.734375 -0.171875 0.765625 -0.175781 0.796875 -0.1875 C 0.828125 -0.195312 0.859375 -0.210938 0.890625 -0.234375 C 0.953125 -0.265625 0.984375 -0.328125 0.984375 -0.421875 L 0.984375 -2.09375 L 0.796875 -2.09375 C 0.648438 -2.09375 0.550781 -2.082031 0.5 -2.0625 C 0.457031 -2.050781 0.425781 -2.035156 0.40625 -2.015625 C 0.382812 -1.992188 0.363281 -1.96875 0.34375 -1.9375 C 0.320312 -1.875 0.304688 -1.765625 0.296875 -1.609375 C 0.265625 -1.609375 0.242188 -1.609375 0.234375 -1.609375 C 0.191406 -1.609375 0.164062 -1.617188 0.15625 -1.640625 C 0.144531 -1.660156 0.132812 -1.679688 0.125 -1.703125 C 0.125 -1.722656 0.125 -1.75 0.125 -1.78125 C 0.113281 -1.832031 0.109375 -1.890625 0.109375 -1.953125 C 0.109375 -2.117188 0.125 -2.222656 0.15625 -2.265625 C 0.175781 -2.316406 0.226562 -2.34375 0.3125 -2.34375 C 0.320312 -2.34375 0.34375 -2.335938 0.375 -2.328125 C 0.40625 -2.328125 0.445312 -2.328125 0.5 -2.328125 C 0.65625 -2.316406 0.835938 -2.3125 1.046875 -2.3125 L 1.296875 -2.3125 C 1.585938 -2.3125 1.78125 -2.316406 1.875 -2.328125 C 1.976562 -2.335938 2.039062 -2.34375 2.0625 -2.34375 C 2.09375 -2.34375 2.117188 -2.335938 2.140625 -2.328125 C 2.160156 -2.328125 2.175781 -2.316406 2.1875 -2.296875 C 2.207031 -2.273438 2.21875 -2.25 2.21875 -2.21875 C 2.21875 -2.164062 2.210938 -2.125 2.203125 -2.09375 C 2.203125 -2.0625 2.195312 -2.023438 2.1875 -1.984375 C 2.1875 -1.953125 2.1875 -1.910156 2.1875 -1.859375 C 2.164062 -1.753906 2.144531 -1.679688 2.125 -1.640625 C 2.101562 -1.617188 2.078125 -1.609375 2.046875 -1.609375 C 2.023438 -1.609375 2.003906 -1.609375 1.984375 -1.609375 L 1.984375 -1.703125 C 1.984375 -1.796875 1.976562 -1.867188 1.96875 -1.921875 C 1.957031 -1.972656 1.9375 -2.007812 1.90625 -2.03125 C 1.875 -2.0625 1.828125 -2.078125 1.765625 -2.078125 C 1.703125 -2.085938 1.625 -2.09375 1.53125 -2.09375 L 1.34375 -2.09375 L 1.34375 -0.359375 C 1.34375 -0.285156 1.398438 -0.234375 1.515625 -0.203125 C 1.546875 -0.203125 1.570312 -0.195312 1.59375 -0.1875 C 1.625 -0.1875 1.648438 -0.179688 1.671875 -0.171875 C 1.691406 -0.171875 1.710938 -0.164062 1.734375 -0.15625 C 1.765625 -0.132812 1.78125 -0.109375 1.78125 -0.078125 C 1.78125 -0.0351562 1.769531 -0.00390625 1.75 0.015625 Z M 1.75 0.015625 "/></g></g></g></svg>